<svg width="660" height="160" viewBox="0 0 660 160" fill="none" xmlns="http://www.w3.org/2000/svg">

<g>
<path d="M61.8184 3.27888C80.1772 13.2451 89.0531 33.0828 95.8266 51.8725C96.1682 50.4138 96.5099 48.955 96.8619 47.452C100.43 32.7486 104.221 18.018 116.935 8.48273C128.606 1.65109 140.315 -0.869297 153.605 2.38562C180.793 12.7548 195.524 40.6574 206.921 65.6288C210.833 74.5145 213.929 83.5946 216.614 92.9169C216.926 93.9373 217.237 94.9577 217.558 96.009C220.72 108.42 221.511 125.917 215.671 137.516C215.208 138.278 214.746 139.04 214.269 139.825C213.831 140.587 213.392 141.349 212.941 142.134C208.993 148.303 203.696 152.731 196.679 155.07C176.44 156.443 176.44 156.443 168.534 150.379C167.713 149.791 166.892 149.203 166.046 148.597C153.6 138.696 145.734 123.561 139.216 109.335C137.79 112.187 137.694 114.822 137.406 117.963C136.327 129.164 134.286 138.578 125.51 146.348C119.819 150.803 115.491 150.63 108.433 150.672C107.44 150.696 106.447 150.721 105.423 150.746C97.7969 150.793 92.8464 149.456 87.0314 144.222C86.0639 143.158 85.0964 142.094 84.0996 140.998C83.504 140.352 82.9084 139.707 82.2948 139.042C78.5359 134.848 75.9817 130.877 73.5454 125.752C73.2884 126.998 73.0314 128.244 72.7666 129.527C68.6958 148.105 68.6958 148.105 61.8184 153.897C53.9289 158.714 46.1708 158.251 37.1917 157.415C26.1911 154.737 17.6189 146.371 11.7589 136.976C-3.08825 107.9 -1.2021 64.4991 7.64526 33.6316C9.76923 27.5096 12.5395 22.1056 16.0832 16.6916C16.5851 15.9101 17.0869 15.1285 17.604 14.3233C27.5125 0.946916 46.709 -2.69702 61.8184 3.27888Z" fill="#FDFDFD"/>
<path d="M61.8184 3.28279C80.1772 13.249 89.0531 33.0867 95.8266 51.8764C96.1682 50.4177 96.5099 48.9589 96.8619 47.4559C100.43 32.7525 104.221 18.0219 116.935 8.48663C128.606 1.655 140.315 -0.86539 153.605 2.38952C180.793 12.7587 195.524 40.6613 206.921 65.6327C210.833 74.5184 213.929 83.5985 216.614 92.9208C216.926 93.9412 217.237 94.9616 217.558 96.0129C220.72 108.424 221.511 125.921 215.671 137.52C215.208 138.282 214.746 139.044 214.269 139.829C213.831 140.591 213.392 141.353 212.941 142.137C208.993 148.307 203.696 152.735 196.679 155.074C176.44 156.447 176.44 156.447 168.534 150.383C167.713 149.795 166.892 149.207 166.046 148.601C153.6 138.7 145.734 123.565 139.216 109.339C137.79 112.191 137.694 114.826 137.406 117.967C136.327 129.168 134.286 138.582 125.51 146.352C119.819 150.806 115.491 150.634 108.433 150.676C107.44 150.7 106.447 150.725 105.423 150.749C97.7969 150.797 92.8464 149.46 87.0314 144.226C86.0639 143.162 85.0964 142.098 84.0996 141.001C83.504 140.356 82.9084 139.71 82.2948 139.045C78.5359 134.851 75.9817 130.881 73.5454 125.756C73.2884 127.002 73.0314 128.248 72.7666 129.531C68.6958 148.109 68.6958 148.109 61.8184 153.901C53.9289 158.718 46.1708 158.254 37.1917 157.419C26.1911 154.741 17.6189 146.375 11.7589 136.979C-3.08825 107.904 -1.2021 64.503 7.64526 33.6355C9.76923 27.5135 12.5395 22.1095 16.0832 16.6955C16.5851 15.914 17.0869 15.1324 17.604 14.3272C27.5125 0.950822 46.709 -2.69312 61.8184 3.28279ZM20.5541 18.3858C8.24153 35.7667 6.27741 54.2757 6.26185 74.8906C6.25951 75.7071 6.25717 76.5235 6.25476 77.3647C6.26205 99.8747 7.19982 127.764 23.3896 145.06C31.4115 152.037 39.4337 153.653 49.9219 153.209C54.7669 152.577 57.2188 151.552 60.6457 148.038C69.3454 136.374 69.2418 122.605 67.2352 108.557C66.2008 102.862 64.9132 97.2348 63.5276 91.6164C62.8786 88.9386 62.3307 86.2464 61.8184 83.5393C62.5924 83.1523 63.3663 82.7653 64.1638 82.3666C64.4208 83.5034 64.6777 84.6401 64.9425 85.8114C69.6403 105.924 75.8528 132.257 94.2279 144.181C100.41 147.552 106.993 147.728 113.82 146.283C119.758 144.531 123.699 142.573 127.489 137.483C136.713 119.629 134.093 98.0245 131.008 78.8485C133.353 80.0212 133.353 80.0212 134.224 82.0095C134.632 83.2951 134.632 83.2951 135.048 84.6066C135.362 85.565 135.676 86.5234 136 87.5109C136.504 89.0641 136.504 89.0641 137.018 90.6487C144.575 113.01 155.654 139.275 177.915 150.383C184.195 152.321 189.964 152.195 196.166 150.236C205.488 145.151 210.443 139.251 214.269 129.274C221.417 100.229 203.937 64.7955 189.317 40.5082C181.627 28.289 172.068 16.5267 159.152 9.65933C158.439 9.26478 157.725 8.87023 156.99 8.46373C147.887 4.23987 136.261 4.65922 126.976 8.04687C115.744 13.3412 109.431 21.7136 104.984 33.2049C100.421 47.1446 98.914 60.7123 99.3447 75.3304C98.5707 75.3304 97.7967 75.3304 96.9993 75.3304C96.7423 74.1089 96.4853 72.8875 96.2205 71.6291C91.3963 49.497 84.1122 23.0665 64.1638 9.80592C48.0128 0.616581 32.1168 4.18894 20.5541 18.3858Z" fill="#2B2B2B"/>
<path d="M163.84 7.30968C191.92 26.8227 207.4 60.9353 216.611 92.9166C217.078 94.4472 217.078 94.4472 217.555 96.0087C220.717 108.42 221.508 125.916 215.668 137.516C215.205 138.278 214.742 139.04 214.266 139.824C213.608 140.967 213.608 140.967 212.937 142.133C208.99 148.303 203.693 152.73 196.675 155.07C176.436 156.443 176.436 156.443 168.531 150.379C167.71 149.791 166.889 149.203 166.043 148.597C153.596 138.695 145.73 123.561 139.213 109.334C138.439 110.108 137.665 110.882 136.868 111.68C136.481 107.423 136.094 103.166 135.695 98.7801C138.017 98.1996 138.017 98.1996 140.386 97.6074C141.071 99.3125 141.071 99.3125 141.769 101.052C149.48 119.73 159.003 139.771 177.912 149.206C184.243 151.16 190.006 151.027 196.236 148.986C205.327 144.104 209.343 138.833 213.093 129.27C220.13 100.811 203.316 66.6125 189.378 42.5868C181.688 29.8839 172.405 17.9786 159.149 10.8278C158.434 10.4317 157.719 10.0357 156.982 9.62759C148.742 5.81342 138.602 6.00012 129.932 8.16172C118.893 12.2639 112.584 19.112 107.55 29.5909C104.697 37.2284 102.443 44.9127 101.687 53.0449C100.913 51.8839 100.139 50.7229 99.3415 49.5268C98.1805 50.1073 98.1805 50.1073 96.9961 50.6995C98.9918 33.8996 104.583 18.4872 118.16 7.68531C132.159 -1.77817 149.499 -1.14108 163.84 7.30968Z" fill="#353535"/>
<path d="M131.006 78.8457C132.167 79.2327 133.328 79.6197 134.524 80.0184C135.894 83.0051 135.894 83.0051 137.09 86.7614C137.493 87.9889 137.897 89.2164 138.313 90.4811C139.148 93.8221 139.399 96.5339 139.215 99.9543C137.474 99.3738 137.474 99.3738 135.697 98.7816C136.278 99.9425 136.278 99.9425 136.87 101.127C138.167 116.461 137.998 130.979 128.418 143.591C122.955 149.042 118.664 150.958 111.084 150.964C110.112 150.941 109.14 150.917 108.139 150.893C107.167 150.902 106.195 150.91 105.193 150.918C97.7268 150.841 92.7063 149.332 87.0302 144.224C86.0627 143.159 85.0953 142.095 84.0985 140.999C83.5029 140.353 82.9073 139.708 82.2936 139.043C78.5614 134.878 75.8146 130.925 73.5442 125.754C72.7702 128.463 71.9962 131.171 71.1988 133.962C70.0378 133.189 68.8769 132.415 67.6807 131.617C67.3409 128.645 67.197 125.873 67.1677 122.895C66.8238 112.165 64.7672 102.08 62.3349 91.6515C61.7154 88.957 61.1658 86.2516 60.6445 83.5365C61.8055 83.1495 62.9665 82.7625 64.1626 82.3638C64.481 83.3558 64.7994 84.3479 65.1275 85.37C66.3382 89.1236 67.559 92.8735 68.7864 96.6217C69.3111 98.2306 69.8319 99.8407 70.3485 101.452C77.9312 125.15 77.9312 125.15 94.2863 143.271C102.757 147.163 110.632 146.217 119.188 143.17C119.992 142.84 120.796 142.511 121.625 142.171C122.462 141.839 123.3 141.506 124.163 141.164C128.301 138.593 128.721 133.77 129.834 129.272C133.704 112.663 132.362 95.6893 131.006 78.8457Z" fill="#282828"/>
<path d="M131.002 78.8457C132.163 79.2327 133.324 79.6197 134.52 80.0184C135.889 83.0051 135.889 83.0051 137.085 86.7614C137.489 87.9889 137.892 89.2164 138.308 90.4811C139.143 93.8221 139.394 96.5338 139.211 99.9543C138.05 99.5673 136.889 99.1803 135.692 98.7816C136.079 99.5555 136.466 100.33 136.865 101.127C137.178 104.857 137.137 108.599 137.158 112.341C137.182 113.36 137.207 114.38 137.232 115.431C137.272 122.153 136.942 129.25 133.347 135.135C130.875 136.008 130.875 136.008 128.656 136.308C128.812 135.668 128.968 135.029 129.128 134.37C133.434 115.984 132.505 97.5331 131.002 78.8457Z" fill="#191919"/>
<path d="M99.3386 48.3535C99.7256 48.3535 100.113 48.3535 100.511 48.3535C100.695 57.4019 100.13 66.3136 99.3386 75.3256C98.5647 75.3256 97.7907 75.3256 96.9932 75.3256C94.759 69.3409 92.9757 64.2278 93.4752 57.7351C94.2491 57.7351 95.0231 57.7351 95.8205 57.7351C96.1834 56.4048 96.5462 55.0745 96.92 53.7039C98.1659 49.5262 98.1659 49.5262 99.3386 48.3535Z" fill="#0C0C0C"/>
<path d="M26.6402 6.14062C27.4142 6.52762 28.1882 6.91461 28.9856 7.31332C24.7287 11.5702 20.4718 15.8271 16.0859 20.213C16.0859 16.0804 16.7323 15.5046 19.3841 12.5172C20.3025 11.4628 20.3025 11.4628 21.2394 10.3871C23.1221 8.48602 23.1221 8.48602 26.6402 6.14062Z" fill="#5B5B5B"/>
<path d="M7.87274 33.1074C8.96831 36.6376 9.09762 37.6417 7.87274 41.3163C8.64672 41.3163 9.4207 41.3163 10.2181 41.3163C9.83114 42.4773 9.44415 43.6382 9.04544 44.8344C8.65845 44.4474 8.27146 44.0604 7.87274 43.6617C7.09876 44.4357 6.32478 45.2097 5.52734 46.0071C6.55345 37.0653 6.55345 37.0653 7.87274 33.1074Z" fill="#7B7B7B"/>
</g>

<g>
<path d="M369.404 43.1407C373.201 45.6029 376.586 48.3373 379.958 51.3496C381.022 52.2498 381.022 52.2498 382.107 53.1682C393.365 63.4095 401.332 78.6225 402.426 93.8075C403.851 124.366 395.899 156.517 374.965 179.769C364.448 189.7 353.576 192.511 339.418 192.408C333.158 191.887 329.61 190.006 325.304 185.344C323.209 181.946 322.852 179.091 322.35 175.142C321.747 170.581 321.11 166.084 320.151 161.583C319.779 162.294 319.407 163.004 319.024 163.736C311.822 176.668 302.665 186.175 288.488 190.901C274.147 192.257 274.147 192.257 268.332 188.335C262.975 182.978 262.372 178.349 262.242 171.036C262.333 127.767 280.573 87.7645 310.769 57.2131C327.067 41.1327 347.346 31.5492 369.404 43.1407Z" fill="#FDFDFD"/>
<path d="M334.224 113.502C334.998 113.502 335.772 113.502 336.569 113.502C334.787 121.786 332.694 129.943 330.433 138.108C327.945 147.334 326.963 156.283 326.895 165.834C326.871 166.683 326.846 167.533 326.821 168.408C326.781 174.011 327.482 177.91 330.706 182.691C337.034 187.773 344.094 186.993 351.815 186.209C363.587 183.554 371.918 175.862 378.42 165.98C381.94 160.148 384.914 154.096 387.747 147.904C389.341 145.165 389.341 145.165 392.859 143.992C393.401 150.186 391.653 154.325 388.681 159.604C388.256 160.376 387.83 161.148 387.392 161.944C379.409 176.125 370.146 186.565 354.343 191.587C346.846 193.027 337.357 193.78 330.486 190.02C324.851 185.512 323.263 182.319 322.351 175.142C321.748 170.581 321.111 166.084 320.152 161.583C319.378 162.357 318.604 163.131 317.806 163.928C316.519 161.907 316.519 161.907 315.461 159.237C316.052 156.742 316.052 156.742 317.293 154.052C317.741 153.051 318.19 152.05 318.651 151.018C319.147 149.957 319.642 148.896 320.152 147.803C321.145 145.592 322.134 143.38 323.12 141.166C323.613 140.065 324.106 138.964 324.613 137.83C327.258 131.755 329.5 125.537 331.769 119.315C333.051 115.847 333.051 115.847 334.224 113.502Z" fill="#2C2C2C"/>
<path d="M334.224 113.502C334.998 113.502 335.772 113.502 336.569 113.502C335.248 119.732 333.757 125.88 332.052 132.015C329.422 141.508 327.521 150.717 326.551 160.52C326.015 163.928 326.015 163.928 323.67 167.446C322.896 167.446 322.122 167.446 321.324 167.446C320.937 165.511 320.55 163.576 320.152 161.583C319.378 162.357 318.604 163.131 317.806 163.928C316.519 161.907 316.519 161.907 315.461 159.237C316.052 156.742 316.052 156.742 317.293 154.052C317.741 153.051 318.19 152.05 318.651 151.018C319.147 149.957 319.642 148.896 320.152 147.803C321.145 145.592 322.134 143.38 323.12 141.166C323.613 140.065 324.106 138.964 324.613 137.83C327.258 131.755 329.5 125.537 331.769 119.315C333.051 115.847 333.051 115.847 334.224 113.502Z" fill="#212121"/>
<path d="M324.839 45.4844C326 45.8714 327.161 46.2584 328.357 46.6571C325.61 51.6517 322.628 54.6849 318.096 58.1642C312.129 62.745 307.4 67.9078 302.557 73.6291C301.783 74.4031 301.009 75.1771 300.212 75.9745C299.438 75.9745 298.664 75.9745 297.867 75.9745C296.27 77.1016 294.702 78.2716 293.176 79.4926C299.219 66.2569 312.385 52.8547 324.839 45.4844Z" fill="#363636"/>
<path d="M369.396 43.1407C373.193 45.6029 376.578 48.3373 379.95 51.3496C381.014 52.2498 381.014 52.2498 382.099 53.1682C393.357 63.4095 401.324 78.6225 402.418 93.8075C403.843 124.366 395.891 156.517 374.957 179.769C364.44 189.7 353.569 192.511 339.41 192.408C333.15 191.887 329.602 190.006 325.296 185.344C323.201 181.946 322.844 179.091 322.342 175.142C321.739 170.581 321.102 166.084 320.143 161.583C319.771 162.294 319.399 163.004 319.016 163.736C311.814 176.668 302.657 186.175 288.48 190.901C274.139 192.257 274.139 192.257 268.324 188.335C262.967 182.978 262.364 178.349 262.234 171.036C262.325 127.767 280.565 87.7645 310.761 57.2131C327.059 41.1327 347.338 31.5492 369.396 43.1407ZM301.38 73.6308C280.035 101.121 267.616 134.1 266.785 168.912C266.749 169.835 266.713 170.757 266.676 171.707C266.675 176.37 267.117 179.501 269.96 183.287C273.509 186.454 274.668 187.121 279.318 186.943C290.934 186.27 299.648 181.516 307.298 172.976C318.467 159.285 334.215 131.55 334.215 113.503C334.989 113.503 335.763 113.503 336.561 113.503C336.324 114.24 336.088 114.977 335.844 115.737C330.466 132.623 325.957 148.39 325.64 166.201C325.619 167.034 325.598 167.868 325.576 168.726C325.589 175.784 327.324 180.491 332.31 185.477C340.421 189.113 349.54 188.559 357.889 185.697C375.545 177.499 384.986 159.033 391.677 141.647C393.612 135.872 395.017 129.993 396.368 124.057C396.633 123.05 396.897 122.043 397.17 121.006C401.442 103.387 398.905 86.6947 390.138 70.919C382.544 58.6912 371.999 47.1344 357.669 43.1407C333.296 40.6588 316.008 55.493 301.38 73.6308Z" fill="#2E2E2E"/>
<path d="M350.637 65.42C350.637 66.581 350.637 67.7419 350.637 68.9381C348.493 70.5735 348.493 70.5735 345.653 72.2363C336.352 78.2131 334.307 85.5489 331.873 95.9101C330.326 95.9101 328.778 95.9101 327.183 95.9101C328.565 84.7125 332.39 75.3675 341.402 68.2052C345.037 65.5629 345.842 65.42 350.637 65.42Z" fill="#161616"/>
<path d="M299.034 73.627C299.421 74.7879 299.807 75.9489 300.206 77.145C298.814 79.5179 298.814 79.5179 296.688 82.2756C291.599 89.1973 287.719 96.4953 283.788 104.117C282.24 103.73 280.693 103.343 279.098 102.944C280.728 97.2645 283.235 92.5527 286.427 87.626C286.861 86.9239 287.295 86.2217 287.742 85.4982C290.917 80.5515 294.364 77.1969 299.034 73.627Z" fill="#2B2B2B"/>
<path d="M575.799 143.988C576.186 143.988 576.573 143.988 576.972 143.988C577.359 151.341 577.746 158.694 578.145 166.27C576.984 166.657 575.823 167.044 574.627 167.442C572.469 165.284 573.251 161.907 573.234 159.013C573.218 157.691 573.201 156.368 573.184 155.005C573.459 150.955 574.35 147.763 575.799 143.988Z" fill="#141414"/>
<path d="M396.371 128.746C397.145 129.133 397.919 129.52 398.717 129.919C396.457 142.3 396.457 142.3 394.026 147.509C392.865 146.735 391.704 145.961 390.508 145.164C390.873 143.502 391.24 141.841 391.607 140.18C391.811 139.255 392.015 138.33 392.226 137.376C392.433 136.463 392.64 135.55 392.853 134.61C393.024 133.745 393.195 132.88 393.371 131.989C393.695 130.964 393.695 130.964 394.026 129.919C394.8 129.532 395.574 129.145 396.371 128.746Z" fill="#343434"/>
<path d="M399.894 117.018C399.894 120.887 399.894 124.757 399.894 128.745C398.346 129.132 396.798 129.519 395.203 129.917C395.336 127.986 395.486 126.056 395.643 124.127C395.725 123.052 395.806 121.977 395.89 120.87C396.05 119.986 396.211 119.101 396.376 118.19C398.721 117.018 398.721 117.018 399.894 117.018Z" fill="#222222"/>
<path d="M470.252 94.7383C471.413 94.7383 472.574 94.7383 473.77 94.7383C473.916 102.507 473.916 102.507 472.597 106.465C471.436 106.852 470.275 107.239 469.079 107.638C469.466 104.929 469.853 102.22 470.252 99.4291C469.478 99.0421 468.704 98.6551 467.906 98.2564C468.68 97.0954 469.454 95.9344 470.252 94.7383Z" fill="#0C0C0C"/>
<path d="M299.035 73.627C299.422 74.7879 299.809 75.9489 300.207 77.145C296.56 81.0007 293.152 83.9905 288.48 86.5266C290.123 80.3212 294.174 77.4092 299.035 73.627Z" fill="#232323"/>
<path d="M334.213 113.502C334.987 113.502 335.761 113.502 336.559 113.502C336.26 115.24 335.938 116.974 335.606 118.706C335.429 119.672 335.252 120.638 335.07 121.633C334.787 122.433 334.505 123.232 334.213 124.056C333.052 124.443 331.891 124.83 330.695 125.229C331.29 120.868 332.004 117.331 334.213 113.502Z" fill="#0F0F0F"/>
</g>

<g>
<path d="M517.156 92.3906C527.711 94.736 527.711 94.736 530.001 95.3367C536.97 97.0775 543.49 97.3646 550.651 97.228C551.722 97.2174 552.793 97.2068 553.897 97.1959C556.505 97.1686 559.111 97.1303 561.719 97.0814C561.332 98.2424 560.945 99.4034 560.546 100.6C559.772 100.6 558.998 100.6 558.201 100.6C558.201 101.373 558.201 102.147 558.201 102.945C547.692 103.2 538.005 102.997 527.711 100.6C527.711 99.8255 527.711 99.0515 527.711 98.2541C524.963 98.5539 522.224 98.9492 519.502 99.4268C519.115 100.201 518.728 100.975 518.329 101.772C517.942 98.6763 517.555 95.5804 517.156 92.3906Z" fill="#282828"/>
<path d="M424.515 53.6914C425.289 54.0784 426.063 54.4654 426.861 54.8641C422.604 59.121 418.347 63.3779 413.961 67.7638C413.961 63.6312 414.607 63.0553 417.259 60.0679C418.177 59.0136 418.177 59.0136 419.114 57.9379C420.997 56.0368 420.997 56.0368 424.515 53.6914Z" fill="#6E6E6E"/>
<path d="M573.45 54.8623C579.211 61.7077 582.051 67.7128 581.906 76.6718C581.18 84.9389 577.299 91.6319 571.104 97.0795C557.055 105.86 541.667 103.609 526.253 100.194C524.655 99.8135 524.655 99.8135 523.024 99.4248C523.387 100.707 523.749 101.989 524.123 103.309C527.02 115.036 526.756 127.22 526.762 139.223C526.776 140.725 526.79 142.227 526.805 143.774C526.849 172.566 526.849 172.566 517.321 182.654C509.169 190.131 502.822 191.459 491.805 191.253C484.388 190.584 480.483 187.316 475.31 182.1C465.506 170.335 465.333 154.57 465.342 140.029C465.342 138.566 465.342 137.102 465.342 135.594C465.506 108.917 465.506 108.917 469.08 101.77C468.288 102.095 467.495 102.42 466.679 102.755C465.633 103.18 464.587 103.605 463.509 104.042C461.958 104.675 461.958 104.675 460.376 105.32C454.119 107.681 448.447 107.924 441.814 108C440.852 108.034 439.889 108.068 438.896 108.103C430.609 108.189 424.632 106.126 418.37 100.639C417.738 99.8754 417.106 99.112 416.455 98.3254C415.805 97.5651 415.155 96.8047 414.485 96.0213C409.232 88.3973 409.654 80.2261 410.445 71.2801C412.744 62.1725 419.838 56.609 427.513 51.8207C437.689 46.2959 448.502 43.4269 459.698 40.79C460.479 40.5946 461.26 40.3992 462.065 40.1979C494.573 32.3039 546.625 32.0638 573.45 54.8623Z" fill="#FDFDFD"/>
<path d="M573.454 54.8624C579.215 61.7077 582.055 67.7128 581.91 76.6718C581.184 84.9389 577.302 91.6319 571.108 97.0795C557.059 105.86 541.671 103.609 526.257 100.194C524.659 99.8135 524.659 99.8135 523.028 99.4249C523.39 100.707 523.753 101.989 524.127 103.309C527.024 115.036 526.76 127.22 526.766 139.223C526.78 140.725 526.794 142.227 526.809 143.774C526.853 172.566 526.853 172.566 517.325 182.654C509.173 190.131 502.826 191.459 491.809 191.253C484.392 190.584 480.486 187.316 475.314 182.1C465.51 170.335 465.337 154.57 465.346 140.029C465.346 138.566 465.346 137.102 465.346 135.594C465.51 108.917 465.51 108.917 469.084 101.77C468.291 102.095 467.499 102.42 466.683 102.755C465.637 103.18 464.591 103.605 463.513 104.042C461.962 104.675 461.962 104.675 460.38 105.32C454.123 107.681 448.451 107.924 441.818 108C440.855 108.034 439.893 108.068 438.9 108.103C430.613 108.189 424.635 106.126 418.374 100.639C417.742 99.8754 417.11 99.112 416.459 98.3254C415.809 97.5651 415.159 96.8047 414.489 96.0213C409.236 88.3973 409.658 80.2261 410.449 71.2801C412.747 62.1725 419.842 56.609 427.517 51.8207C437.693 46.2959 448.506 43.4269 459.702 40.79C460.483 40.5946 461.264 40.3992 462.069 40.1979C494.577 32.3039 546.629 32.0638 573.454 54.8624ZM417.485 66.5893C413.87 71.848 412.983 76.7389 413.967 83.0071C416.057 90.7427 418.657 96.2973 425.694 100.598C437.664 106.137 449.42 104.324 461.534 100.084C465.73 98.4891 469.8 96.8231 473.774 94.7341C473.52 95.9646 473.266 97.1951 473.005 98.4629C470.671 110.959 469.849 123.32 469.762 136.006C469.75 137.739 469.73 139.471 469.701 141.204C469.494 155.692 470.565 169.788 480.953 180.827C487.362 186.237 492.222 186.905 500.476 186.681C507.105 185.847 511.025 183.251 515.433 178.357C523.75 166.843 522.321 150.532 522.295 136.951C522.297 135.603 522.297 135.603 522.3 134.227C522.297 119.835 521.039 106.314 517.164 92.3887C518.197 92.7137 519.229 93.0387 520.293 93.3735C521.655 93.7983 523.017 94.2231 524.42 94.6608C525.767 95.0825 527.114 95.5043 528.502 95.9388C540.423 99.4187 555.161 100.681 566.417 94.7341C572.063 91.27 575.004 86.8977 576.972 80.6617C578.11 73.9783 578.03 68.4106 574.113 62.7048C561.463 48.2181 541.392 43.7168 523.028 41.9627C515.728 41.5305 508.424 41.4713 501.113 41.4496C500.208 41.4425 499.303 41.4354 498.37 41.428C470.673 41.2854 437.387 45.3856 417.485 66.5893Z" fill="#2E2E2E"/>
<path d="M521.859 97.0816C524.761 97.6621 524.761 97.6621 527.722 98.2543C526.174 98.6413 524.627 99.0283 523.032 99.427C523.394 100.709 523.757 101.991 524.131 103.312C527.028 115.038 526.764 127.222 526.77 139.225C526.784 140.727 526.798 142.229 526.813 143.776C526.857 172.568 526.857 172.568 517.329 182.656C509.177 190.133 502.83 191.461 491.813 191.255C484.396 190.586 480.49 187.319 475.318 182.102C465.513 170.337 465.342 154.572 465.35 140.032C465.349 138.569 465.348 137.107 465.347 135.601C465.408 124.932 466.086 114.632 467.915 104.118C469.463 104.892 471.011 105.666 472.606 106.463C472.42 107.991 472.234 109.52 472.042 111.094C471.245 119.144 471.13 127.191 471.087 135.272C471.073 137.022 471.049 138.772 471.015 140.521C470.722 155.376 471.511 169.552 482.244 180.943C487.92 185.686 493.222 185.603 500.434 185.474C506.029 184.832 509.623 183.069 513.65 179.17C522.325 167.984 521.037 152.177 520.928 138.678C520.906 135.907 520.904 133.137 520.904 130.366C520.898 128.583 520.891 126.799 520.883 125.016C520.882 124.198 520.881 123.381 520.879 122.539C520.834 117.842 520.374 113.422 519.514 108.809C519.382 105.668 519.459 102.573 519.514 99.427C520.288 99.427 521.062 99.427 521.859 99.427C521.859 98.653 521.859 97.879 521.859 97.0816Z" fill="#343434"/>
</g>

<g>
<path d="M656.789 39.0304C657.918 39.0088 659.048 38.9871 660.211 38.9648C669 39.0421 675.076 41.1708 681.928 46.6529C684.792 52.3809 684.811 57.9903 683.687 64.2434C681.375 68.3964 678.573 71.4912 674.306 73.625C675.098 74.0377 675.89 74.4504 676.706 74.8756C687.522 80.8615 687.522 80.8615 690.073 86.3048C691.93 93.6275 692.026 101.251 688.891 108.146C687.948 109.138 687.005 110.13 686.033 111.151C685.239 112.006 685.239 112.006 684.429 112.878C678.253 118.886 670.412 121.902 662.579 125.224C663.357 125.481 664.136 125.738 664.938 126.002C673.536 129.09 677.627 131.866 681.782 140.176C683.108 147.072 682.653 153.923 679.29 160.185C676.687 163.872 674.127 166.757 670.788 169.786C670.253 170.326 669.717 170.866 669.166 171.422C653.773 186.08 628.726 192.532 608.094 192.315C595.719 191.577 587.138 186.427 578.878 177.409C571.404 168.892 572.676 156.833 573.185 146.252C575.602 115.374 585.86 75.1618 608.3 52.4523C621.507 41.2095 640.075 39.2188 656.789 39.0304Z" fill="#FDFDFD"/>
<path d="M656.789 39.0304C657.918 39.0088 659.048 38.9871 660.211 38.9648C669 39.0421 675.076 41.1708 681.928 46.6529C684.792 52.3809 684.811 57.9903 683.687 64.2434C681.375 68.3964 678.573 71.4912 674.306 73.625C675.098 74.0377 675.89 74.4504 676.706 74.8756C687.522 80.8615 687.522 80.8615 690.073 86.3048C691.93 93.6275 692.026 101.251 688.891 108.146C687.948 109.138 687.005 110.13 686.033 111.151C685.239 112.006 685.239 112.006 684.429 112.878C678.253 118.886 670.412 121.902 662.579 125.224C663.357 125.481 664.136 125.738 664.938 126.002C673.536 129.09 677.627 131.866 681.782 140.176C683.108 147.072 682.653 153.923 679.29 160.185C676.687 163.872 674.127 166.757 670.788 169.786C670.253 170.326 669.717 170.866 669.166 171.422C653.773 186.08 628.726 192.532 608.094 192.315C595.719 191.577 587.138 186.427 578.878 177.409C571.404 168.892 572.676 156.833 573.185 146.252C575.602 115.374 585.86 75.1618 608.3 52.4523C621.507 41.2095 640.075 39.2188 656.789 39.0304ZM608.781 58.0134C607.514 59.6648 606.292 61.3522 605.117 63.0707C604.52 63.9263 603.922 64.7819 603.307 65.6635C587.282 90.4628 573.653 133.036 576.972 162.75C579.058 172.358 584.866 178.951 592.877 184.372C605.277 190.656 621.999 189.012 634.947 184.958C637.952 183.915 640.886 182.752 643.816 181.513C644.543 181.212 645.27 180.91 646.018 180.6C658.442 175.309 670.023 167.818 676.651 155.714C678.747 149.426 678.434 144.556 676.285 138.417C673.28 133.92 669.461 132.28 664.407 130.675C655.155 128.989 643.454 128.081 634.434 131.087C634.434 129.926 634.434 128.765 634.434 127.569C636.11 127.376 636.11 127.376 637.819 127.18C653.998 124.85 672.962 119.462 683.687 106.461C686.987 101.227 688.056 97.3784 687.205 91.2154C685.009 85.7043 682.464 82.5193 677.384 79.4152C666.535 76.2098 653.406 79.2254 642.643 81.8339C642.643 81.0599 642.643 80.2859 642.643 79.4885C647.952 77.688 653.265 75.9328 658.639 74.335C659.531 74.0606 660.423 73.7863 661.342 73.5036C663.157 72.9453 664.977 72.405 666.802 71.882C673.276 69.8438 676.435 67.6246 680.169 61.898C681.291 58.2479 680.796 56.4652 680.169 52.5164C676.546 47.5757 672.081 44.4511 666.097 43.1348C648.615 41.3585 621.32 44.4957 608.781 58.0134Z" fill="#303030"/>
<path d="M656.563 39.1066C657.706 39.0805 658.85 39.0543 660.028 39.0273C668.926 39.0555 674.984 41.1046 681.923 46.6559C684.787 52.3838 684.805 57.9933 683.682 64.2463C681.369 68.3993 678.568 71.4941 674.3 73.6279C675.488 74.247 675.488 74.247 676.701 74.8785C687.496 80.8534 687.496 80.8534 690.072 86.2986C691.53 92.1083 691.575 98.2129 690.718 104.118C688.927 106.926 688.927 106.926 687.2 108.809C686.813 108.035 686.426 107.261 686.027 106.463C684.866 107.237 683.705 108.011 682.509 108.809C683.053 107.466 683.053 107.466 683.608 106.097C685.918 100.254 687.307 95.1975 685.308 88.9829C683.29 84.7868 681.512 83.1158 677.452 80.6641C669.485 78.1896 658.645 79.2373 650.846 81.8368C648.11 81.8832 645.373 81.8884 642.637 81.8368C642.637 81.0628 642.637 80.2888 642.637 79.4914C648.807 76.7916 654.954 74.1244 661.396 72.1392C662.177 71.8968 662.957 71.6545 663.762 71.4048C665.999 70.7242 668.244 70.0684 670.489 69.4135C674.825 67.5375 676.537 65.9005 678.991 61.901C679.878 58.398 679.463 56.233 678.991 52.5194C675.911 47.9611 671.385 45.5369 666.091 44.3105C648.302 42.4831 624.605 46.1133 610.177 57.3018C609.28 58.0455 608.382 58.7893 607.456 59.5556C605.919 60.3868 604.363 61.191 602.766 61.901C603.866 55.8435 607.376 52.6618 612.147 49.0013C626.061 41.3242 640.946 39.3207 656.563 39.1066Z" fill="#292929"/>
</g>

</svg>