<svg width="608" height="196" viewBox="0 0 608 196" fill="none" xmlns="http://www.w3.org/2000/svg">
<path d="M80 33.5625C95.6552 42.061 103.224 58.9774 109 75C109.291 73.7561 109.583 72.5121 109.883 71.2305C112.925 58.6923 116.159 46.1311 127 38C136.952 32.1744 146.937 30.0252 158.27 32.8008C181.454 41.643 194.015 65.4365 203.734 86.7305C207.07 94.3076 209.71 102.051 212 110C212.266 110.87 212.531 111.74 212.805 112.637C215.501 123.22 216.176 138.14 211.195 148.031C210.801 148.681 210.406 149.331 210 150C209.626 150.65 209.252 151.299 208.867 151.969C205.501 157.23 200.984 161.005 195 163C177.742 164.171 177.742 164.171 171 159C170.3 158.499 169.6 157.997 168.879 157.48C158.265 149.037 151.558 136.132 146 124C144.784 126.432 144.701 128.679 144.456 131.358C143.536 140.909 141.795 148.937 134.313 155.563C129.459 159.361 125.768 159.214 119.75 159.25C118.903 159.271 118.056 159.291 117.184 159.313C110.68 159.353 106.459 158.213 101.5 153.75C100.675 152.843 99.85 151.935 99 151C98.4921 150.45 97.9842 149.899 97.461 149.332C94.2557 145.756 92.0776 142.37 90 138C89.7809 139.062 89.5617 140.124 89.336 141.219C85.8646 157.061 85.8646 157.061 80 162C73.2724 166.108 66.6568 165.712 59 165C49.6194 162.716 42.3095 155.582 37.3125 147.57C24.6519 122.777 26.2602 85.7671 33.8047 59.4453C35.6159 54.2249 37.9782 49.6167 41 45C41.428 44.3336 41.856 43.6671 42.2969 42.9805C50.7462 31.574 67.1157 28.4666 80 33.5625Z" fill="#FDFDFD"/>
<path d="M315 36C318.238 38.0996 321.124 40.4313 324 43C324.907 43.7676 324.907 43.7676 325.832 44.5508C335.432 53.2839 342.225 66.2566 343.159 79.2053C344.374 105.264 337.593 132.68 319.742 152.508C310.774 160.976 301.503 163.373 289.429 163.285C284.092 162.841 281.066 161.237 277.394 157.262C275.608 154.364 275.303 151.93 274.875 148.562C274.361 144.673 273.818 140.838 273 137C272.683 137.606 272.366 138.212 272.039 138.836C265.897 149.863 258.089 157.97 246 162C233.771 163.157 233.771 163.157 228.812 159.812C224.244 155.244 223.729 151.297 223.619 145.061C223.696 108.164 239.25 74.0522 265 48C278.897 34.2877 296.19 26.1155 315 36Z" fill="#FDFDFD"/>
<path d="M489 46C493.913 51.8372 496.335 56.9581 496.211 64.5977C495.592 71.6473 492.282 77.3546 487 82C475.02 89.4875 461.898 87.5681 448.754 84.6562C447.391 84.3314 447.391 84.3314 446 84C446.31 85.0931 446.619 86.1862 446.938 87.3125C449.408 97.312 449.183 107.702 449.188 117.938C449.2 119.218 449.212 120.499 449.225 121.818C449.262 146.37 449.262 146.37 441.137 154.973C434.186 161.348 428.774 162.481 419.379 162.305C413.055 161.734 409.724 158.948 405.313 154.5C396.953 144.468 396.805 131.024 396.813 118.625C396.813 117.377 396.813 116.128 396.813 114.842C396.953 92.0942 396.953 92.0942 400 86C399.325 86.2771 398.649 86.5543 397.953 86.8398C397.061 87.2021 396.169 87.5643 395.25 87.9375C393.928 88.477 393.928 88.477 392.578 89.0273C387.243 91.0403 382.406 91.2471 376.75 91.3125C375.929 91.3415 375.108 91.3705 374.262 91.4004C367.195 91.4732 362.098 89.7143 356.758 85.0352C356.219 84.3842 355.68 83.7332 355.125 83.0625C354.571 82.4141 354.017 81.7657 353.446 81.0977C348.966 74.5964 349.326 67.6286 350 60C351.961 52.2336 358.01 47.4894 364.555 43.4062C373.232 38.6951 382.453 36.2486 392 34C392.666 33.8334 393.333 33.6668 394.019 33.4951C421.739 26.7636 466.126 26.5589 489 46Z" fill="#FDFDFD"/>
<path d="M560.063 32.5C561.026 32.4816 561.989 32.4631 562.981 32.4441C570.475 32.51 575.657 34.3252 581.5 39C583.942 43.8844 583.958 48.6678 583 54C581.028 57.5414 578.639 60.1804 575 62C575.676 62.3519 576.351 62.7038 577.047 63.0664C586.27 68.1709 586.27 68.1709 588.445 72.8125C590.029 79.0568 590.11 85.5573 587.438 91.4375C586.633 92.2831 585.829 93.1288 585 94C584.323 94.729 584.323 94.729 583.633 95.4727C578.366 100.595 571.679 103.168 565 106C565.664 106.219 566.328 106.438 567.012 106.664C574.344 109.297 577.832 111.664 581.375 118.75C582.506 124.631 582.118 130.473 579.25 135.812C577.03 138.957 574.848 141.417 572 144C571.544 144.46 571.087 144.92 570.617 145.395C557.491 157.894 536.133 163.396 518.539 163.211C507.987 162.582 500.669 158.191 493.625 150.5C487.252 143.237 488.337 132.954 488.771 123.932C490.832 97.6012 499.58 63.3105 518.715 43.9453C529.977 34.3582 545.81 32.6607 560.063 32.5Z" fill="#FDFDFD"/>
<path d="M80 33.5625C95.6552 42.061 103.224 58.9774 109 75C109.291 73.7561 109.583 72.5121 109.883 71.2305C112.925 58.6923 116.159 46.1311 127 38C136.952 32.1744 146.937 30.0252 158.27 32.8008C181.454 41.643 194.015 65.4365 203.734 86.7305C207.07 94.3076 209.71 102.051 212 110C212.266 110.87 212.531 111.74 212.805 112.637C215.501 123.22 216.176 138.14 211.195 148.031C210.801 148.681 210.406 149.331 210 150C209.626 150.65 209.252 151.299 208.867 151.969C205.501 157.23 200.984 161.005 195 163C177.742 164.171 177.742 164.171 171 159C170.3 158.499 169.6 157.997 168.879 157.48C158.265 149.037 151.558 136.132 146 124C144.784 126.432 144.701 128.679 144.456 131.358C143.536 140.909 141.795 148.937 134.313 155.563C129.459 159.361 125.768 159.214 119.75 159.25C118.903 159.271 118.056 159.291 117.184 159.313C110.68 159.353 106.459 158.213 101.5 153.75C100.675 152.843 99.85 151.935 99 151C98.4921 150.45 97.9842 149.899 97.461 149.332C94.2557 145.756 92.0776 142.37 90 138C89.7809 139.062 89.5617 140.124 89.336 141.219C85.8646 157.061 85.8646 157.061 80 162C73.2724 166.108 66.6568 165.712 59 165C49.6194 162.716 42.3095 155.582 37.3125 147.57C24.6519 122.777 26.2602 85.7671 33.8047 59.4453C35.6159 54.2249 37.9782 49.6167 41 45C41.428 44.3336 41.856 43.6671 42.2969 42.9805C50.7462 31.574 67.1157 28.4666 80 33.5625ZM44.8125 46.4414C34.3132 61.2627 32.6383 77.0459 32.625 94.625C32.623 95.3212 32.621 96.0174 32.619 96.7347C32.6252 115.93 33.4249 139.712 47.2305 154.461C54.071 160.411 60.9118 161.788 69.8555 161.41C73.9869 160.871 76.0778 159.997 79 157C86.4186 147.054 86.3302 135.313 84.6192 123.334C83.7371 118.478 82.639 113.679 81.4575 108.888C80.9041 106.604 80.4369 104.308 80 102C80.66 101.67 81.32 101.34 82 101C82.2192 101.969 82.4383 102.939 82.6641 103.938C86.67 121.089 91.9677 143.543 107.637 153.711C112.908 156.586 118.522 156.736 124.344 155.504C129.407 154.01 132.768 152.34 136 148C143.866 132.775 141.631 114.352 139 98C141 99 141 99 141.743 100.696C142.09 101.792 142.09 101.792 142.445 102.91C142.713 103.727 142.981 104.545 143.258 105.387C143.687 106.711 143.687 106.711 144.125 108.063C150.569 127.131 160.017 149.528 179 159C184.355 160.652 189.275 160.545 194.563 158.875C202.512 154.539 206.737 149.508 210 141C216.096 116.232 201.189 86.0165 188.722 65.3059C182.165 54.8861 174.013 44.856 163 39C162.392 38.6636 161.783 38.3271 161.156 37.9805C153.393 34.3786 143.479 34.7362 135.563 37.625C125.985 42.1396 120.601 49.2791 116.809 59.0781C112.918 70.965 111.633 82.5346 112 95C111.34 95 110.68 95 110 95C109.781 93.9584 109.562 92.9169 109.336 91.8438C105.222 72.971 99.0108 50.4327 82 39.125C68.2275 31.2889 54.6724 34.3352 44.8125 46.4414Z" fill="#2B2B2B"/>
<path d="M489 46C493.913 51.8372 496.335 56.9581 496.211 64.5977C495.592 71.6473 492.282 77.3546 487 82C475.02 89.4875 461.898 87.5681 448.754 84.6562C447.391 84.3314 447.391 84.3314 446 84C446.31 85.0931 446.619 86.1862 446.938 87.3125C449.408 97.312 449.183 107.702 449.188 117.938C449.2 119.218 449.212 120.499 449.225 121.818C449.262 146.37 449.262 146.37 441.137 154.973C434.186 161.348 428.774 162.481 419.379 162.305C413.055 161.734 409.724 158.948 405.313 154.5C396.953 144.468 396.805 131.024 396.813 118.625C396.813 117.377 396.813 116.128 396.813 114.842C396.953 92.0942 396.953 92.0942 400 86C399.325 86.2771 398.649 86.5543 397.953 86.8398C397.061 87.2021 396.169 87.5643 395.25 87.9375C393.928 88.477 393.928 88.477 392.578 89.0273C387.243 91.0403 382.406 91.2471 376.75 91.3125C375.929 91.3415 375.108 91.3705 374.262 91.4004C367.195 91.4732 362.098 89.7143 356.758 85.0352C356.219 84.3842 355.68 83.7332 355.125 83.0625C354.571 82.4141 354.017 81.7657 353.446 81.0977C348.966 74.5964 349.326 67.6286 350 60C351.961 52.2336 358.01 47.4894 364.555 43.4062C373.232 38.6951 382.453 36.2486 392 34C392.666 33.8334 393.333 33.6668 394.019 33.4951C421.739 26.7636 466.126 26.5589 489 46ZM356 56C352.917 60.4843 352.161 64.6549 353 70C354.783 76.5964 357 81.333 363 85C373.208 89.724 383.233 88.1775 393.563 84.5625C397.14 83.2021 400.612 81.7814 404 80C403.784 81.0493 403.567 82.0986 403.344 83.1797C401.354 93.8355 400.653 104.376 400.578 115.194C400.568 116.672 400.551 118.149 400.527 119.626C400.351 131.981 401.263 144.001 410.121 153.414C415.587 158.027 419.731 158.597 426.77 158.406C432.423 157.695 435.765 155.482 439.524 151.309C446.616 141.489 445.398 127.58 445.375 116C445.377 114.85 445.377 114.85 445.38 113.677C445.377 101.404 444.304 89.8743 441 78C441.881 78.2771 442.761 78.5543 443.668 78.8398C444.83 79.2021 445.991 79.5643 447.188 79.9375C448.336 80.2971 449.485 80.6568 450.668 81.0273C460.834 83.9947 473.401 85.0713 483 80C487.814 77.0461 490.322 73.3177 492 68C492.971 62.3009 492.903 57.5531 489.563 52.6875C478.776 40.3342 461.66 36.4958 446 35C439.775 34.6315 433.547 34.581 427.313 34.5625C426.541 34.5564 425.769 34.5503 424.974 34.5441C401.356 34.4224 372.972 37.9188 356 56Z" fill="#2E2E2E"/>
<path d="M315 36C318.238 38.0996 321.124 40.4313 324 43C324.907 43.7676 324.907 43.7676 325.832 44.5508C335.432 53.2839 342.225 66.2566 343.159 79.2053C344.374 105.264 337.593 132.68 319.742 152.508C310.774 160.976 301.503 163.373 289.429 163.285C284.092 162.841 281.066 161.237 277.394 157.262C275.608 154.364 275.303 151.93 274.875 148.562C274.361 144.673 273.818 140.838 273 137C272.683 137.606 272.366 138.212 272.039 138.836C265.897 149.863 258.089 157.97 246 162C233.771 163.157 233.771 163.157 228.812 159.812C224.244 155.244 223.729 151.297 223.619 145.061C223.696 108.164 239.25 74.0522 265 48C278.897 34.2877 296.19 26.1155 315 36ZM257 62C238.799 85.4418 228.208 113.564 227.5 143.25C227.469 144.036 227.438 144.823 227.406 145.633C227.406 149.609 227.783 152.279 230.207 155.508C233.233 158.208 234.221 158.777 238.187 158.625C248.093 158.051 255.523 153.997 262.047 146.715C271.57 135.04 285 111.39 285 96C285.66 96 286.32 96 287 96C286.798 96.6287 286.597 97.2573 286.389 97.905C281.803 112.305 277.958 125.75 277.687 140.937C277.669 141.648 277.651 142.359 277.633 143.091C277.644 149.11 279.123 153.123 283.375 157.375C290.292 160.476 298.067 160.003 305.187 157.562C320.243 150.572 328.294 134.825 334 120C335.65 115.076 336.847 110.062 338 105C338.225 104.141 338.451 103.283 338.683 102.398C342.326 87.3745 340.163 73.14 332.687 59.6875C326.211 49.2604 317.22 39.4055 305 36C284.216 33.8836 269.474 46.5332 257 62Z" fill="#2E2E2E"/>
<path d="M560.063 32.5C561.026 32.4816 561.989 32.4631 562.981 32.4441C570.475 32.51 575.657 34.3252 581.5 39C583.942 43.8844 583.958 48.6678 583 54C581.028 57.5414 578.639 60.1804 575 62C575.676 62.3519 576.351 62.7038 577.047 63.0664C586.27 68.1709 586.27 68.1709 588.445 72.8125C590.029 79.0568 590.11 85.5573 587.438 91.4375C586.633 92.2831 585.829 93.1288 585 94C584.323 94.729 584.323 94.729 583.633 95.4727C578.366 100.595 571.679 103.168 565 106C565.664 106.219 566.328 106.438 567.012 106.664C574.344 109.297 577.832 111.664 581.375 118.75C582.506 124.631 582.118 130.473 579.25 135.812C577.03 138.957 574.848 141.417 572 144C571.544 144.46 571.087 144.92 570.617 145.395C557.491 157.894 536.133 163.396 518.539 163.211C507.987 162.582 500.669 158.191 493.625 150.5C487.252 143.237 488.337 132.954 488.771 123.932C490.832 97.6012 499.58 63.3105 518.715 43.9453C529.977 34.3582 545.81 32.6607 560.063 32.5ZM519.125 48.6875C518.044 50.0957 517.002 51.5346 516 53C515.491 53.7296 514.982 54.4592 514.457 55.2109C500.792 76.3582 489.17 112.662 492 138C493.779 146.193 498.731 151.815 505.563 156.438C516.137 161.796 530.396 160.395 541.438 156.938C544 156.048 546.502 155.056 549 154C549.62 153.743 550.24 153.486 550.879 153.221C561.472 148.71 571.348 142.321 577 132C578.787 126.638 578.52 122.485 576.688 117.25C574.126 113.416 570.869 112.017 566.559 110.648C558.669 109.211 548.692 108.436 541 111C541 110.01 541 109.02 541 108C542.429 107.836 542.429 107.836 543.887 107.668C557.683 105.681 573.854 101.086 583 90C585.814 85.5368 586.725 82.2554 586 77C584.127 72.3005 581.957 69.5845 577.625 66.9375C568.374 64.2042 557.178 66.7757 548 69C548 68.34 548 67.68 548 67C552.527 65.4647 557.058 63.9679 561.641 62.6055C562.401 62.3715 563.162 62.1375 563.945 61.8965C565.493 61.4204 567.045 60.9597 568.602 60.5137C574.122 58.7756 576.815 56.8832 580 52C580.957 48.8875 580.535 47.3672 580 44C576.91 39.7868 573.103 37.1224 568 36C553.092 34.4852 529.817 37.1604 519.125 48.6875Z" fill="#303030"/>
<path d="M167 37C190.945 53.6394 204.145 82.7284 212 110C212.398 111.305 212.398 111.305 212.805 112.637C215.501 123.22 216.176 138.14 211.195 148.031C210.801 148.681 210.406 149.331 210 150C209.439 150.975 209.439 150.975 208.867 151.969C205.501 157.23 200.984 161.005 195 163C177.742 164.171 177.742 164.171 171 159C170.3 158.499 169.6 157.997 168.879 157.48C158.265 149.037 151.558 136.132 146 124C145.34 124.66 144.68 125.32 144 126C143.67 122.37 143.34 118.74 143 115C144.98 114.505 144.98 114.505 147 114C147.584 115.454 147.584 115.454 148.18 116.937C154.755 132.865 162.876 149.955 179 158C184.398 159.666 189.313 159.553 194.625 157.812C202.378 153.649 205.802 149.155 209 141C215.001 116.732 200.662 87.5696 188.777 67.082C182.22 56.2498 174.304 46.0977 163 40C162.39 39.6623 161.781 39.3245 161.152 38.9766C154.125 35.7241 145.479 35.8833 138.086 37.7266C128.672 41.2247 123.293 47.0642 119 56C116.566 62.5127 114.645 69.0654 114 76C113.34 75.01 112.68 74.02 112 73C111.01 73.495 111.01 73.495 110 74C111.702 59.6742 116.47 46.5315 128.047 37.3203C139.985 29.2505 154.771 29.7937 167 37Z" fill="#353535"/>
<path d="M445 82C447.475 82.495 447.475 82.495 450 83C448.68 83.33 447.36 83.66 446 84C446.309 85.0931 446.619 86.1862 446.938 87.3125C449.408 97.312 449.182 107.702 449.188 117.938C449.2 119.218 449.212 120.499 449.225 121.818C449.262 146.37 449.262 146.37 441.137 154.973C434.185 161.348 428.773 162.481 419.379 162.305C413.054 161.734 409.724 158.948 405.312 154.5C396.952 144.467 396.806 131.024 396.812 118.625C396.812 117.378 396.811 116.131 396.811 114.847C396.863 105.749 397.441 96.9655 399 88C400.32 88.66 401.64 89.32 403 90C402.841 91.3032 402.683 92.6065 402.52 93.9492C401.839 100.814 401.742 107.675 401.705 114.567C401.693 116.059 401.673 117.551 401.643 119.042C401.394 131.709 402.067 143.798 411.219 153.512C416.059 157.556 420.581 157.485 426.73 157.375C431.501 156.828 434.566 155.324 438 152C445.398 142.461 444.299 128.982 444.206 117.471C444.187 115.108 444.185 112.746 444.186 110.383C444.181 108.862 444.175 107.341 444.168 105.82C444.167 105.123 444.166 104.426 444.165 103.708C444.126 99.7035 443.734 95.9337 443 92C442.888 89.3219 442.954 86.6827 443 84C443.66 84 444.32 84 445 84C445 83.34 445 82.68 445 82Z" fill="#343434"/>
<path d="M139 98C139.99 98.33 140.98 98.66 142 99C143.168 101.547 143.168 101.547 144.188 104.75C144.532 105.797 144.876 106.843 145.23 107.922C145.943 110.771 146.157 113.083 146 116C144.515 115.505 144.515 115.505 143 115C143.495 115.99 143.495 115.99 144 117C145.106 130.076 144.962 142.456 136.793 153.211C132.135 157.859 128.475 159.493 122.012 159.498C121.183 159.478 120.354 159.458 119.5 159.438C118.671 159.445 117.842 159.452 116.988 159.459C110.621 159.393 106.34 158.106 101.5 153.75C100.675 152.842 99.85 151.935 99 151C98.4921 150.45 97.9842 149.899 97.4609 149.332C94.2783 145.781 91.936 142.41 90 138C89.34 140.31 88.68 142.62 88 145C87.01 144.34 86.02 143.68 85 143C84.7102 140.465 84.5875 138.102 84.5625 135.562C84.2692 126.412 82.5155 117.813 80.4414 108.92C79.9131 106.622 79.4445 104.315 79 102C79.99 101.67 80.98 101.34 82 101C82.2715 101.846 82.543 102.692 82.8228 103.563C83.8552 106.764 84.8962 109.962 85.9429 113.158C86.3903 114.53 86.8344 115.903 87.2749 117.277C93.7409 137.485 93.7409 137.485 107.688 152.938C114.911 156.256 121.626 155.45 128.922 152.852C129.608 152.571 130.293 152.29 131 152C131.714 151.716 132.428 151.433 133.164 151.141C136.693 148.948 137.051 144.835 138 141C141.3 126.837 140.156 112.363 139 98Z" fill="#282828"/>
<path d="M559.875 32.5625C560.85 32.5402 561.825 32.5179 562.829 32.4949C570.417 32.5189 575.583 34.2663 581.5 39C583.942 43.8844 583.958 48.6678 583 54C581.028 57.5414 578.639 60.1804 575 62C576.013 62.5279 576.013 62.5279 577.047 63.0664C586.253 68.1614 586.253 68.1614 588.449 72.8047C589.692 77.7589 589.731 82.9645 589 88C587.473 90.3945 587.473 90.3945 586 92C585.67 91.34 585.34 90.68 585 90C584.01 90.66 583.02 91.32 582 92C582.464 90.8553 582.464 90.8553 582.938 89.6875C584.907 84.7053 586.092 80.3931 584.387 75.0938C582.666 71.5156 581.15 70.0906 577.688 68C570.894 65.8899 561.65 66.7833 555 69C552.667 69.0395 550.333 69.044 548 69C548 68.34 548 67.68 548 67C553.261 64.6977 558.503 62.4233 563.996 60.7305C564.662 60.5238 565.328 60.3172 566.013 60.1042C567.921 59.5239 569.836 58.9646 571.75 58.4062C575.447 56.8065 576.907 55.4106 579 52C579.757 49.0129 579.402 47.1667 579 44C576.374 40.113 572.514 38.0458 568 37C552.83 35.4417 532.623 38.5373 520.32 48.0781C519.555 48.7123 518.789 49.3466 518 50C516.689 50.7089 515.362 51.3946 514 52C514.938 46.8346 517.932 44.1215 522 41C533.865 34.4535 546.558 32.745 559.875 32.5625Z" fill="#292929"/>
<path d="M285 96C285.66 96 286.32 96 287 96C285.48 103.064 283.695 110.02 281.768 116.982C279.645 124.849 278.809 132.481 278.75 140.625C278.729 141.349 278.709 142.074 278.688 142.82C278.653 147.598 279.25 150.923 282 155C287.396 159.333 293.416 158.668 300 158C310.039 155.736 317.143 149.177 322.688 140.75C325.689 135.777 328.225 130.616 330.641 125.336C332 123 332 123 335 122C335.462 127.281 333.971 130.811 331.438 135.312C331.075 135.971 330.712 136.63 330.338 137.308C323.531 149.401 315.632 158.303 302.156 162.586C295.763 163.814 287.671 164.456 281.812 161.25C277.007 157.406 275.653 154.683 274.875 148.562C274.361 144.673 273.818 140.838 273 137C272.34 137.66 271.68 138.32 271 139C269.902 137.276 269.902 137.276 269 135C269.504 132.872 269.504 132.872 270.562 130.578C270.945 129.725 271.327 128.871 271.721 127.991C272.143 127.087 272.565 126.182 273 125.25C273.847 123.365 274.69 121.478 275.531 119.59C275.951 118.651 276.372 117.713 276.805 116.746C279.06 111.565 280.972 106.263 282.906 100.957C284 98 284 98 285 96Z" fill="#2C2C2C"/>
<path d="M582 51C582.438 53.125 582.438 53.125 582 56C579.873 58.2761 577.498 60.1459 575 62C575.675 62.3519 576.351 62.7038 577.047 63.0664C586.253 68.1614 586.253 68.1614 588.449 72.8047C589.692 77.7589 589.731 82.9645 589 88C587.473 90.3945 587.473 90.3945 586 92C585.67 91.34 585.34 90.68 585 90C584.01 90.66 583.02 91.32 582 92C582.309 91.2369 582.619 90.4737 582.938 89.6875C584.907 84.7053 586.092 80.3931 584.387 75.0938C582.666 71.5156 581.15 70.0906 577.688 68C570.894 65.8899 561.65 66.7833 555 69C552.667 69.0395 550.333 69.044 548 69C548 68.34 548 67.68 548 67C553.261 64.6977 558.503 62.4233 563.996 60.7305C564.995 60.4205 564.995 60.4205 566.013 60.1042C567.921 59.5239 569.836 58.9646 571.75 58.4062C575.407 56.8238 576.745 55.2161 579 52C581 51 581 51 582 51Z" fill="#222222"/>
<path d="M285 96C285.66 96 286.32 96 287 96C285.873 101.312 284.602 106.555 283.148 111.787C280.905 119.882 279.284 127.734 278.457 136.094C278 139 278 139 276 142C275.34 142 274.68 142 274 142C273.67 140.35 273.34 138.7 273 137C272.34 137.66 271.68 138.32 271 139C269.902 137.276 269.902 137.276 269 135C269.504 132.872 269.504 132.872 270.562 130.578C270.945 129.725 271.327 128.871 271.721 127.991C272.143 127.087 272.565 126.182 273 125.25C273.847 123.365 274.69 121.478 275.531 119.59C275.951 118.651 276.372 117.713 276.805 116.746C279.06 111.565 280.972 106.263 282.906 100.957C284 98 284 98 285 96Z" fill="#212121"/>
<path d="M139 98C139.99 98.33 140.98 98.66 142 99C143.168 101.547 143.168 101.547 144.188 104.75C144.532 105.797 144.876 106.843 145.23 107.922C145.943 110.771 146.157 113.083 146 116C145.01 115.67 144.02 115.34 143 115C143.33 115.66 143.66 116.32 144 117C144.267 120.181 144.232 123.372 144.25 126.562C144.271 127.432 144.291 128.301 144.312 129.197C144.347 134.929 144.065 140.982 141 146C138.892 146.744 138.892 146.744 137 147C137.133 146.455 137.266 145.909 137.402 145.348C141.074 129.669 140.282 113.935 139 98Z" fill="#191919"/>
<path d="M441 78C450 80 450 80 451.953 80.5122C457.896 81.9967 463.456 82.2415 469.562 82.125C470.476 82.116 471.389 82.107 472.33 82.0977C474.554 82.0744 476.777 82.0417 479 82C478.67 82.99 478.34 83.98 478 85C477.34 85 476.68 85 476 85C476 85.66 476 86.32 476 87C467.039 87.2177 458.778 87.044 450 85C450 84.34 450 83.68 450 83C447.657 83.2556 445.322 83.5927 443 84C442.67 84.66 442.34 85.32 442 86C441.67 83.36 441.34 80.72 441 78Z" fill="#282828"/>
<path d="M277 38C277.99 38.33 278.98 38.66 280 39C277.657 43.2591 275.115 45.8456 271.25 48.8125C266.162 52.7187 262.13 57.1213 258 62C257.34 62.66 256.68 63.32 256 64C255.34 64 254.68 64 254 64C252.638 64.9611 251.301 65.9588 250 67C255.154 55.7135 266.381 44.2849 277 38Z" fill="#363636"/>
<path d="M498 94C498.306 98.4936 497.796 102.144 496.625 106.5C494.723 113.602 493.847 120.708 493 128C492.67 128 492.34 128 492 128C491.67 126.35 491.34 124.7 491 123C490.67 124.65 490.34 126.3 490 128C489.67 128 489.34 128 489 128C489.261 119.895 490.176 112.168 491.875 104.25C492.036 103.464 492.198 102.678 492.364 101.868C494.141 94 494.141 94 498 94Z" fill="#2D2D2D"/>
<path d="M299 55C299 55.99 299 56.98 299 58C297.172 59.3945 297.172 59.3945 294.75 60.8125C286.819 65.9091 285.075 72.1646 283 81C281.68 81 280.36 81 279 81C280.178 71.4514 283.44 63.4826 291.125 57.375C294.225 55.1218 294.912 55 299 55Z" fill="#161616"/>
<path d="M255 62C255.33 62.99 255.66 63.98 256 65C254.812 67.0234 254.812 67.0234 253 69.375C248.661 75.2774 245.352 81.5006 242 88C240.68 87.67 239.36 87.34 238 87C239.39 82.1565 241.528 78.1386 244.25 73.9375C244.62 73.3387 244.99 72.74 245.371 72.123C248.079 67.9048 251.018 65.0442 255 62Z" fill="#2B2B2B"/>
<path d="M585 89C585.33 90.32 585.66 91.64 586 93C581.322 97.9174 576.276 101.137 570.188 104C569.529 104.315 568.871 104.629 568.193 104.953C563.384 107.128 563.384 107.128 560 106C561.32 105.67 562.64 105.34 564 105C564.05 104.399 564.101 103.799 564.152 103.18C565.416 99.9298 567.432 99.5119 570.562 98.125C575.924 95.6142 580.452 92.7722 585 89Z" fill="#373737"/>
<path d="M112 72C112.33 72 112.66 72 113 72C113.157 79.7159 112.674 87.3152 112 95C111.34 95 110.68 95 110 95C108.095 89.8967 106.574 85.5366 107 80C107.66 80 108.32 80 109 80C109.309 78.8656 109.619 77.7313 109.937 76.5625C111 73 111 73 112 72Z" fill="#0C0C0C"/>
<path d="M491.001 122C491.331 122 491.661 122 492.001 122C492.331 128.27 492.661 134.54 493.001 141C492.011 141.33 491.021 141.66 490.001 142C488.161 140.16 488.827 137.28 488.813 134.812C488.799 133.685 488.785 132.557 488.771 131.395C489.005 127.941 489.765 125.219 491.001 122Z" fill="#141414"/>
<path d="M338 109C338.66 109.33 339.32 109.66 340 110C338.073 120.558 338.073 120.558 336 125C335.01 124.34 334.02 123.68 333 123C333.312 121.583 333.624 120.167 333.938 118.75C334.112 117.961 334.286 117.172 334.465 116.359C334.641 115.581 334.818 114.802 335 114C335.146 113.263 335.291 112.525 335.441 111.766C335.718 110.892 335.718 110.892 336 110C336.66 109.67 337.32 109.34 338 109Z" fill="#343434"/>
<path d="M517 49C518 52 518 52 517.109 54.043C516.661 54.7507 516.212 55.4584 515.75 56.1875C515.312 56.9029 514.873 57.6184 514.422 58.3555C513.718 59.1695 513.718 59.1695 513 60C512.01 60 511.02 60 510 60C509.01 60.495 509.01 60.495 508 61C509.627 55.0338 511.914 52.3906 517 49Z" fill="#353535"/>
<path d="M546.5 155.875C546.995 156.246 547.49 156.618 548 157C545.579 159.421 544.199 159.528 540.875 160.125C539.965 160.293 539.055 160.46 538.117 160.633C537.419 160.754 536.72 160.875 536 161C536.66 160.67 537.32 160.34 538 160C538 159.34 538 158.68 538 158C537.34 157.67 536.68 157.34 536 157C543.385 154.785 543.385 154.785 546.5 155.875Z" fill="#535353"/>
<path d="M341 99C341 102.3 341 105.6 341 109C339.68 109.33 338.36 109.66 337 110C337.114 108.353 337.241 106.708 337.375 105.062C337.445 104.146 337.514 103.229 337.586 102.285C337.723 101.531 337.859 100.777 338 100C340 99 340 99 341 99Z" fill="#222222"/>
<path d="M401 80C401.99 80 402.98 80 404 80C404.125 86.625 404.125 86.625 403 90C402.01 90.33 401.02 90.66 400 91C400.33 88.69 400.66 86.38 401 84C400.34 83.67 399.68 83.34 399 83C399.66 82.01 400.32 81.02 401 80Z" fill="#0C0C0C"/>
<path d="M511 58C512.392 62.1759 510.823 64.1347 509 68C507.68 67.67 506.36 67.34 505 67C506.161 62.6446 507.077 60.3538 511 58Z" fill="#242424"/>
<path d="M569 99C569.66 99.33 570.32 99.66 571 100C570.67 100.33 570.34 100.66 570 101C570.66 101.66 571.32 102.32 572 103C570.568 103.699 569.129 104.384 567.688 105.062C566.487 105.637 566.487 105.637 565.262 106.223C563 107 563 107 560 106C561.32 105.67 562.64 105.34 564 105C564.083 104.381 564.165 103.762 564.25 103.125C565 101 565 101 566.938 99.6875C567.618 99.4606 568.299 99.2338 569 99Z" fill="#5D5D5D"/>
<path d="M255 62C255.33 62.99 255.66 63.98 256 65C252.89 68.2879 249.984 70.8374 246 73C247.401 67.7084 250.855 65.2252 255 62Z" fill="#232323"/>
<path d="M362 45C362.66 45.33 363.32 45.66 364 46C360.37 49.63 356.74 53.26 353 57C353 53.476 353.551 52.985 355.812 50.4375C356.596 49.5384 356.596 49.5384 357.395 48.6211C359 47 359 47 362 45Z" fill="#6E6E6E"/>
<path d="M50 36C50.66 36.33 51.32 36.66 52 37C48.37 40.63 44.74 44.26 41 48C41 44.476 41.5512 43.985 43.8125 41.4375C44.5956 40.5384 44.5956 40.5384 45.3945 39.6211C47 38 47 38 50 36Z" fill="#5B5B5B"/>
<path d="M552 152C552.66 152.33 553.32 152.66 554 153C553.67 153.99 553.34 154.98 553 156C550.291 157.354 547.991 157.065 545 157C547.363 154.474 548.665 153.112 552 152Z" fill="#282828"/>
<path d="M490 114C490.33 114 490.66 114 491 114C491 116.31 491 118.62 491 121C491.66 121 492.32 121 493 121C493 123.31 493 125.62 493 128C492.67 128 492.34 128 492 128C491.67 126.35 491.34 124.7 491 123C490.67 124.65 490.34 126.3 490 128C489.67 128 489.34 128 489 128C489.33 123.38 489.66 118.76 490 114Z" fill="#727272"/>
<path d="M285 96C285.66 96 286.32 96 287 96C286.746 97.4821 286.471 98.9607 286.188 100.438C286.037 101.261 285.886 102.085 285.73 102.934C285.489 103.616 285.248 104.297 285 105C284.01 105.33 283.02 105.66 282 106C282.507 102.281 283.116 99.2655 285 96Z" fill="#0F0F0F"/>
<path d="M575 96C575.66 96.33 576.32 96.66 577 97C576.67 98.32 576.34 99.64 576 101C573.69 101.33 571.38 101.66 569 102C571 100 573 98 575 96Z" fill="#272727"/>
<path d="M538 158C538 158.66 538 159.32 538 160C535.043 161.478 532.258 161.06 529 161C528.67 160.34 528.34 159.68 528 159C531.406 158.222 534.508 157.9 538 158Z" fill="#090909"/>
<path d="M34 59C34.9342 62.0103 35.0445 62.8665 34 66C34.66 66 35.32 66 36 66C35.67 66.99 35.34 67.98 35 69C34.67 68.67 34.34 68.34 34 68C33.34 68.66 32.68 69.32 32 70C32.875 62.375 32.875 62.375 34 59Z" fill="#7B7B7B"/>
</svg>
