<svg width="686" height="201" viewBox="0 0 686 201" fill="none" xmlns="http://www.w3.org/2000/svg">
<path d="M613.691 36.6211C632.067 55.5562 639.459 86.1561 639.231 111.884C638.888 126.292 634.77 138.106 624.707 148.734C613.11 158.44 600.53 159.858 586 159C575.502 157.552 567.711 149.34 561.277 141.469C560.856 140.984 560.434 140.499 560 140C559.67 140 559.34 140 559 140C558.948 140.857 558.897 141.714 558.844 142.598C557.801 153.107 557.801 153.107 553.313 157.187C545.611 162.754 536.717 163.079 527.543 161.605C520.06 159.574 514.433 154.736 510.242 148.301C499.739 128.535 496.978 100.837 502.836 79.1562C507.309 67.0268 513.282 54.5645 524.563 47.375C532.357 44.1011 543.1 45.0124 550.938 47.5625C558.642 50.846 564.888 55.6696 569 63C570.791 61.2095 570.257 58.4241 570.375 56C571.01 47.2138 572.426 40.2814 579 34C590.317 26.5662 603.656 27.6453 613.691 36.6211Z" fill="#FBFBFB"/>
<path d="M240.126 36.6875C241.249 36.696 241.249 36.696 242.396 36.7046C259.872 37.0825 273.153 44.6851 285.001 57C292.712 65.6857 292.728 75.7262 292.187 86.7105C290.185 111.286 273.852 132.306 256.001 148C242.199 158.828 225.336 163.416 208.001 162C196.561 159.701 185.257 153.253 178.001 144C170.337 131.532 171.165 113.602 173.614 99.6016C174.505 96.2322 175.598 93.1898 177.001 90C177.403 89.0591 177.403 89.0591 177.814 88.0991C182.23 77.9596 187.953 69.4741 195.001 61C195.511 60.3258 196.022 59.6517 196.547 58.957C204.004 49.3729 214.902 43.3962 226.001 39C226.949 38.6236 227.898 38.2472 228.876 37.8594C232.656 36.8198 236.235 36.6568 240.126 36.6875Z" fill="#FBFBFB"/>
<path d="M346 37C349.996 38.6039 351.595 39.3934 354 43C354.414 45.6992 354.414 45.6992 354.625 48.6875C354.7 49.6814 354.774 50.6752 354.851 51.6992C354.9 52.4585 354.949 53.2177 355 54C355.606 53.4083 356.212 52.8167 356.836 52.207C363.992 45.4579 370.585 39.8777 380.75 39.4375C385.519 39.68 388.417 40.6862 392 44C396.485 50.0087 395.525 56.8861 395 64C393.595 73.1686 385.722 81.2193 378.562 86.5625C377.924 86.9969 377.286 87.4313 376.629 87.8789C374.845 89.0342 374.845 89.0342 373 91C373.519 91.3145 374.039 91.6291 374.574 91.9531C375.272 92.3811 375.969 92.8091 376.687 93.25C377.714 93.8765 377.714 93.8765 378.762 94.5156C386.595 99.7105 392.335 106.739 394.5 116.063C395.904 126.197 393.734 134.466 388 143C381.771 149.09 376.652 150.287 368.176 150.321C362.6 150.229 358.566 149.349 354 146C353.154 145.464 352.309 144.928 351.437 144.375C347.672 140.706 344.894 136.371 342 132C341.769 132.606 341.538 133.212 341.301 133.836C340.235 136.573 339.128 139.288 338 142C337.638 142.873 337.275 143.745 336.902 144.645C334.094 150.843 330.647 155.137 325 159C318.036 161.321 310.169 160.996 303.5 157.938C297.366 154.403 294.235 149.979 292.401 143.16C287.029 114.252 298.275 78.6921 313 54C315.712 50.2693 318.645 47.1487 322 44C322.588 43.291 323.176 42.582 323.781 41.8516C329.721 35.2606 337.793 35.8373 346 37Z" fill="#FAFAFA"/>
<path d="M169 49C173.041 52.7332 176.639 56.9426 177.3 62.5508C177.338 71.5047 175.401 77.4526 169 84C162.675 88.7308 157.09 88.5139 149.375 88.3125C148.256 88.3028 147.137 88.2931 145.984 88.2832C141.182 88.2173 136.697 88.0632 132 87C132.241 88.918 132.241 88.918 132.487 90.8747C133.046 95.9262 133.178 100.925 133.203 106.004C133.208 106.927 133.214 107.849 133.22 108.8C133.229 110.737 133.236 112.674 133.24 114.611C133.25 117.558 133.281 120.504 133.312 123.451C133.319 125.344 133.324 127.236 133.328 129.129C133.34 130 133.352 130.871 133.365 131.768C133.337 139.59 131.62 146.224 126 152C118.61 157.969 112.488 158.792 103 158C96.8617 156.288 93.1468 151.252 89.9995 146C86.161 138.158 85.8499 129.937 85.6831 121.348C85.6624 120.448 85.6416 119.547 85.6202 118.62C85.5552 115.768 85.496 112.915 85.437 110.062C85.3938 108.119 85.3502 106.176 85.3062 104.232C85.1996 99.4883 85.0982 94.7442 84.9995 90C84.2116 90.2122 83.4237 90.4244 82.6119 90.643C72.0856 93.393 62.0388 95.1077 51.9996 90C46.7024 86.3327 43.0416 82.1528 41.4644 75.8672C40.5024 69.5201 40.8259 63.3621 44.3785 57.8672C56.8149 42.6895 77.8577 38.1582 96.4842 36.1985C120.479 34.305 148.412 34.9979 169 49Z" fill="#FBFBFB"/>
<path d="M465.125 37.6875C466.075 37.6714 467.025 37.6553 468.004 37.6387C474.7 37.634 479.526 38.3757 484.996 42.5078C487.92 45.788 489.399 48.1587 489.562 52.625C489.29 56.4506 488.373 58.9232 486 62C484.999 63.3325 483.998 64.6657 483 66C483.626 66.4589 484.253 66.9178 484.898 67.3906C485.716 68.0042 486.533 68.6178 487.375 69.25C488.187 69.8533 488.999 70.4566 489.836 71.0781C492.909 73.8077 493.842 75.7004 494.336 79.7696C494.484 91.3326 494.484 91.3326 490 96C485.148 100.054 480.235 103.523 474 105C475.861 107.068 477.66 108.44 480 110C483.717 112.478 485.584 113.753 487 118C487.724 125.348 487.073 130.804 483 137C482.464 137.846 481.927 138.691 481.375 139.563C469.016 152.247 449.137 158.821 431.75 159.375C420.954 159.031 412.293 155.158 404.562 147.625C400.797 141.299 400.641 134.294 400.687 127.125C400.693 126.208 400.699 125.291 400.704 124.346C401.16 98.2244 410.331 69.0999 427.637 49.1094C437.445 39.7042 452.149 37.6431 465.125 37.6875Z" fill="#FBFBFB"/>
<path d="M613.691 36.6211C632.067 55.5562 639.459 86.1561 639.231 111.884C638.888 126.292 634.77 138.106 624.707 148.734C613.11 158.44 600.53 159.858 586 159C575.502 157.552 567.711 149.34 561.277 141.469C560.856 140.984 560.434 140.499 560 140C559.67 140 559.34 140 559 140C558.948 140.857 558.897 141.714 558.844 142.598C557.801 153.107 557.801 153.107 553.313 157.187C545.611 162.754 536.717 163.079 527.543 161.605C520.06 159.574 514.433 154.736 510.242 148.301C499.739 128.535 496.978 100.837 502.836 79.1562C507.309 67.0268 513.282 54.5645 524.563 47.375C532.357 44.1011 543.1 45.0124 550.938 47.5625C558.642 50.846 564.888 55.6696 569 63C570.791 61.2095 570.257 58.4241 570.375 56C571.01 47.2138 572.426 40.2814 579 34C590.317 26.5662 603.656 27.6453 613.691 36.6211ZM578.688 39.125C570.476 53.1143 573.86 68.8722 577.559 83.7226C579.037 89.3291 580.853 94.7295 582.984 100.125C584.029 103.083 584.575 105.897 585 109C581.33 105.997 580.329 102.338 579.68 97.7265C577.956 85.5138 572.464 73.777 565 64C564.237 62.9481 563.474 61.8962 562.688 60.8125C555.725 53.5257 547.169 49.1 537.063 48.5C529.12 48.8078 523.095 52.4736 517.688 58.125C513.679 63.0369 511.123 68.0455 509 74C508.607 75.057 508.214 76.114 507.809 77.2031C504.923 86.4928 504.628 95.5568 504.625 105.25C504.623 106.517 504.622 107.784 504.62 109.089C504.804 124.705 506.894 140.786 518.273 152.516C524.611 157.965 531.972 158.354 539.984 158.285C545.165 157.795 548.945 155.951 552.691 152.395C554.628 148.85 554.446 145.373 554.375 141.437C554.365 140.625 554.355 139.813 554.344 138.977C554.179 132.566 553.148 127.051 551 121C550.209 118.644 549.426 116.285 548.643 113.926C548.096 112.287 547.542 110.65 546.982 109.016C545 103.211 545 103.211 545 101C545.453 102.05 545.453 102.05 545.915 103.12C547.313 106.353 548.719 109.583 550.125 112.812C550.599 113.913 551.074 115.013 551.563 116.146C558.606 132.28 566.365 147.148 583 155C590.146 157.382 600.993 157.38 608 154.375C609.359 153.627 610.693 152.834 612 152C612.755 151.553 613.511 151.105 614.289 150.645C623.547 144.87 630.836 137.857 633.501 126.952C634.612 121.67 635.38 116.359 636 111C636.106 110.092 636.211 109.185 636.32 108.25C636.763 99.75 634.087 91.1728 632 83C631.663 81.6752 631.663 81.6752 631.318 80.3237C626.868 63.1624 621.33 45.5906 606 35C596.698 30.3489 586.158 32.2598 578.688 39.125Z" fill="#383838"/>
<path d="M346 37C349.996 38.6039 351.595 39.3934 354 43C354.414 45.6992 354.414 45.6992 354.625 48.6875C354.7 49.6814 354.774 50.6752 354.851 51.6992C354.9 52.4585 354.949 53.2177 355 54C355.606 53.4083 356.212 52.8167 356.836 52.207C363.992 45.4579 370.585 39.8777 380.75 39.4375C385.519 39.68 388.417 40.6862 392 44C396.485 50.0087 395.525 56.8861 395 64C393.595 73.1686 385.722 81.2193 378.562 86.5625C377.924 86.9969 377.286 87.4313 376.629 87.8789C374.845 89.0342 374.845 89.0342 373 91C373.519 91.3145 374.039 91.6291 374.574 91.9531C375.272 92.3811 375.969 92.8091 376.687 93.25C377.714 93.8765 377.714 93.8765 378.762 94.5156C386.595 99.7105 392.335 106.739 394.5 116.063C395.904 126.197 393.734 134.466 388 143C381.771 149.09 376.652 150.287 368.176 150.321C362.6 150.229 358.566 149.349 354 146C353.154 145.464 352.309 144.928 351.437 144.375C347.672 140.706 344.894 136.371 342 132C341.769 132.606 341.538 133.212 341.301 133.836C340.235 136.573 339.128 139.288 338 142C337.638 142.873 337.275 143.745 336.902 144.645C334.094 150.843 330.647 155.137 325 159C318.036 161.321 310.169 160.996 303.5 157.938C297.366 154.403 294.235 149.979 292.401 143.16C287.029 114.252 298.275 78.6921 313 54C315.712 50.2693 318.645 47.1487 322 44C322.588 43.291 323.176 42.582 323.781 41.8516C329.721 35.2606 337.793 35.8373 346 37ZM325 46C324.214 46.5621 323.429 47.1242 322.62 47.7034C313.561 55.6446 309.785 69.1639 306.25 80.3125C305.775 81.7754 305.299 83.2381 304.823 84.7007C299.913 99.9174 295.846 114.848 295.75 130.938C295.729 131.793 295.709 132.648 295.687 133.529C295.644 140.633 296.722 146.242 301.375 151.875C307.569 156.889 314.323 156.783 322 156C329.686 152.359 333.193 145.691 336 138C338.096 131.034 339.289 124.224 340 117C340.33 116.67 340.66 116.34 341 116C341.346 117.268 341.346 117.268 341.699 118.563C344.841 129.489 348.509 137.344 358 144C362.956 146.714 368.364 148.123 374 147C381.532 144.043 385.734 139.828 389.812 132.938C392.426 126.162 392.103 117.791 389.375 111.125C385.394 103.551 380.155 97.9585 372 95C368.255 94.1456 364.479 93.5195 360.676 92.9873C358.775 92.7152 356.886 92.3641 355 92C354.67 91.34 354.34 90.68 354 90C355.072 90.1031 356.145 90.2063 357.25 90.3125C367.378 90.2946 376.566 84.1309 383.68 77.4141C389.501 71.2448 392.176 64.1863 392.562 55.75C392.405 52.1663 392.156 49.2966 390.187 46.25C386.293 43.5007 383.873 43.3218 379.207 43.3008C370.322 45.2379 363.969 50.2418 357.812 56.6875C357.123 57.3943 356.433 58.1011 355.722 58.8294C350.292 64.4843 344.808 70.2906 341.961 77.707C341 80 341 80 339 81C339.5 79.9959 339.5 79.9959 340.01 78.9714C341.529 75.8874 343.014 72.788 344.5 69.6875C345.025 68.635 345.549 67.5825 346.09 66.4981C349.391 59.532 351.073 53.731 350 46C349.026 42.6155 349.026 42.6155 346 41C337.828 39.5508 331.621 41.1711 325 46Z" fill="#393939"/>
<path d="M465.125 37.6875C466.075 37.6714 467.025 37.6553 468.004 37.6387C474.7 37.634 479.526 38.3757 484.996 42.5078C487.92 45.788 489.399 48.1587 489.562 52.625C489.29 56.4506 488.373 58.9232 486 62C484.999 63.3325 483.998 64.6657 483 66C483.626 66.4589 484.253 66.9178 484.898 67.3906C485.716 68.0042 486.533 68.6178 487.375 69.25C488.187 69.8533 488.999 70.4566 489.836 71.0781C492.909 73.8077 493.842 75.7004 494.336 79.7696C494.484 91.3326 494.484 91.3326 490 96C485.148 100.054 480.235 103.523 474 105C475.861 107.068 477.66 108.44 480 110C483.717 112.478 485.584 113.753 487 118C487.724 125.348 487.073 130.804 483 137C482.464 137.846 481.927 138.691 481.375 139.563C469.016 152.247 449.137 158.821 431.75 159.375C420.954 159.031 412.293 155.158 404.562 147.625C400.797 141.299 400.641 134.294 400.687 127.125C400.693 126.208 400.699 125.291 400.704 124.346C401.16 98.2244 410.331 69.0999 427.637 49.1094C437.445 39.7042 452.149 37.6431 465.125 37.6875ZM428.824 52.7696C413.031 72.0798 405.662 100.879 405.437 125.313C405.422 126.452 405.408 127.591 405.392 128.764C405.489 136.491 406.639 142.105 411.746 148.023C421.31 155.666 432.073 155.763 444 155C449.591 153.926 454.223 152.099 459 149C460.134 148.526 461.269 148.051 462.437 147.563C470.957 143.826 479.449 137.908 483 129C483.789 124.522 484.046 120.23 482.078 116.035C479.27 112.306 476.39 111.112 472 110C468.379 109.632 464.762 109.493 461.125 109.375C460.15 109.336 459.176 109.298 458.172 109.258C455.781 109.164 453.391 109.078 451 109C451.781 108.754 452.562 108.507 453.367 108.253C456.298 107.322 459.226 106.379 462.151 105.429C464.027 104.824 465.907 104.231 467.787 103.639C477.694 100.407 485.956 96.6423 491 87C492.064 82.6714 491.336 79.6152 489.187 75.6875C485.456 70.949 485.456 70.949 480 69C473.703 68.6229 467.881 68.4797 462 71C460 71.6667 458 72.3334 456 73C456 71.68 456 70.36 456 69C456.548 68.9137 457.096 68.8273 457.66 68.7383C463.198 67.7568 468.526 66.3385 473.875 64.625C475.13 64.2254 476.386 63.8258 477.679 63.4141C481.051 61.978 482.828 60.9297 485 58C485.803 54.5917 485.634 51.4347 485 48C482.625 44.5455 480.762 43.3268 476.937 41.6875C461.438 38.9813 440.52 41.2696 428.824 52.7696Z" fill="#404040"/>
<path d="M169 49C173.041 52.7332 176.639 56.9426 177.3 62.5508C177.338 71.5047 175.401 77.4526 169 84C162.675 88.7308 157.09 88.5139 149.375 88.3125C148.256 88.3028 147.137 88.2931 145.984 88.2832C141.182 88.2173 136.697 88.0632 132 87C132.241 88.918 132.241 88.918 132.487 90.8747C133.046 95.9262 133.178 100.925 133.203 106.004C133.208 106.927 133.214 107.849 133.22 108.8C133.229 110.737 133.236 112.674 133.24 114.611C133.25 117.558 133.281 120.504 133.312 123.451C133.319 125.344 133.324 127.236 133.328 129.129C133.34 130 133.352 130.871 133.365 131.768C133.337 139.59 131.62 146.224 126 152C118.61 157.969 112.488 158.792 103 158C96.8617 156.288 93.1468 151.252 89.9995 146C86.161 138.158 85.8499 129.937 85.6831 121.348C85.6624 120.448 85.6416 119.547 85.6202 118.62C85.5552 115.768 85.496 112.915 85.437 110.062C85.3938 108.119 85.3502 106.176 85.3062 104.232C85.1996 99.4883 85.0982 94.7442 84.9995 90C84.2116 90.2122 83.4237 90.4244 82.6119 90.643C72.0856 93.393 62.0388 95.1077 51.9996 90C46.7024 86.3327 43.0416 82.1528 41.4644 75.8672C40.5024 69.5201 40.8259 63.3621 44.3785 57.8672C56.8149 42.6895 77.8577 38.1582 96.4842 36.1985C120.479 34.305 148.412 34.9979 169 49ZM85.9351 42.2671C83.1079 42.9729 80.3191 43.4573 77.437 43.875C65.5489 46.0285 55.6474 50.7873 47.4996 59.75C44.1844 64.7227 44.1984 70.23 44.9996 76C47.6613 82.2836 51.6371 86.3891 57.9995 89C60.8277 89.443 63.1261 89.6671 65.937 89.625C67.0255 89.6211 67.0255 89.6211 68.136 89.6172C76.3915 89.332 83.5581 86.3652 90.9995 83C90.536 86.7745 90.0733 90.5355 89.4771 94.2917C88.9824 98.1328 88.8207 101.904 88.7964 105.77C88.7879 106.851 88.7879 106.851 88.7792 107.954C88.7698 109.471 88.7632 110.988 88.7593 112.505C88.7496 114.796 88.7185 117.086 88.687 119.377C88.6036 130.838 89.7711 140.69 96.9995 150C102.021 154.579 107.313 154.339 113.828 154.281C117.924 153.918 120.025 152.822 123 150C123.721 149.319 124.443 148.639 125.187 147.937C130.456 139.399 130.45 129.623 130.336 119.895C130.312 117.767 130.315 115.64 130.322 113.512C130.299 102.5 129.26 91.7976 127 81C127.79 81.2887 128.58 81.5775 129.394 81.875C136.652 84.264 143.255 85.4487 150.875 85.5625C152.05 85.6021 152.05 85.6021 153.249 85.6426C160.049 85.6022 164.738 83.0635 169.654 78.4458C172.946 74.9077 173.465 71.2999 173.75 66.5625C173.504 60.7801 172.29 57.6588 168.085 53.7031C167.397 53.1411 166.709 52.579 166 52C165.394 51.4586 164.788 50.9172 164.164 50.3594C156.999 44.7524 147.707 43.0008 139 41C137.885 40.7284 137.885 40.7284 136.748 40.4514C133.135 39.858 129.561 39.8178 125.91 39.7969C125.129 39.7912 124.348 39.7855 123.543 39.7796C121.89 39.7702 120.237 39.7636 118.583 39.7597C116.101 39.7501 113.62 39.7191 111.138 39.6875C102.395 39.6302 94.4525 40.1351 85.9351 42.2671Z" fill="#444444"/>
<path d="M240.126 36.6875C241.249 36.696 241.249 36.696 242.396 36.7046C259.872 37.0825 273.153 44.6851 285.001 57C292.712 65.6857 292.728 75.7262 292.187 86.7105C290.185 111.286 273.852 132.306 256.001 148C242.199 158.828 225.336 163.416 208.001 162C196.561 159.701 185.257 153.253 178.001 144C170.337 131.532 171.165 113.602 173.614 99.6016C174.505 96.2322 175.598 93.1898 177.001 90C177.403 89.0591 177.403 89.0591 177.814 88.0991C182.23 77.9596 187.953 69.4741 195.001 61C195.511 60.3258 196.022 59.6517 196.547 58.957C204.004 49.3729 214.902 43.3962 226.001 39C226.949 38.6236 227.898 38.2472 228.876 37.8594C232.656 36.8198 236.235 36.6568 240.126 36.6875ZM194.626 66.375C185.892 76.702 179.648 89.6613 177.395 102.969C177.001 105 177.001 105 176.001 107C174.897 119.153 174.527 133.268 181.856 143.621C189.873 152.515 201.482 157.387 213.313 158.238C223.65 158.446 233.59 157.603 242.001 151C243.052 150.588 244.104 150.175 245.188 149.75C262.429 142.597 277.037 122.795 284.001 106C288.531 93.3944 291.767 79.4733 287.227 66.4063C280.568 53.3428 267.335 46.3727 254.001 42C230.689 34.8857 209.711 50.5827 194.626 66.375Z" fill="#3F3F3F"/>
<path d="M613.691 36.6211C632.067 55.5562 639.459 86.1561 639.23 111.884C638.889 126.287 634.773 138.1 624.715 148.727C619.765 152.871 614.047 155.776 608 158C607.34 157.67 606.68 157.34 606 157C606.33 156.34 606.66 155.68 607 155C606.34 154.67 605.68 154.34 605 154C605.557 153.781 606.114 153.562 606.688 153.336C612.474 150.932 617.201 148.018 622 144C622.887 143.257 623.774 142.515 624.688 141.75C632.258 132.748 633.689 122.331 635 111C635.106 110.092 635.211 109.185 635.32 108.25C635.763 99.75 633.087 91.1728 631 83C630.775 82.1168 630.55 81.2336 630.318 80.3237C625.892 63.2537 620.702 46.9509 605.895 36.0937C600.761 33.1302 594.746 33.6434 589 34C585.492 34.8571 585.492 34.8571 583 36C583 35.34 583 34.68 583 34C582.34 33.67 581.68 33.34 581 33C592.21 26.7116 604.163 28.099 613.691 36.6211Z" fill="#3F3F3F"/>
<path d="M314.999 55C315.999 58 315.999 58 315.164 60.2202C314.729 61.0834 314.295 61.9466 313.847 62.8359C310.788 69.2674 308.579 75.8409 306.437 82.625C306.046 83.8518 305.656 85.0786 305.253 86.3425C300.641 101.036 296.842 115.452 296.749 130.938C296.729 131.793 296.708 132.648 296.687 133.529C296.646 140.258 297.58 145.936 301.874 151.375C307.875 155.964 314.751 155.759 321.999 155C325.496 153.365 325.496 153.365 327.999 151C329.659 149.989 331.324 148.985 332.999 148C332.916 150.838 332.427 152.54 330.48 154.633C324.621 159.739 320.177 160.418 312.433 160.34C306.466 159.749 301.616 157.598 297.343 153.355C289.028 142.647 290.958 126.051 292.272 113.369C294.594 97.2821 300.428 67.0529 313.202 56.1133C314.092 55.5622 314.092 55.5622 314.999 55Z" fill="#363636"/>
<path d="M91.9999 82C91.8556 83.3543 91.7094 84.7085 91.5624 86.0625C91.4812 86.8166 91.4 87.5707 91.3163 88.3477C91.0838 90.2973 90.802 92.2412 90.4928 94.1802C89.9921 98.0604 89.8213 101.865 89.7968 105.77C89.7911 106.491 89.7854 107.212 89.7795 107.955C89.7701 109.471 89.7636 110.988 89.7597 112.505C89.75 114.796 89.7189 117.086 89.6874 119.377C89.6059 130.591 90.5478 141.045 97.9999 150C102.722 153.778 108.111 153.5 113.934 153.348C119.399 152.728 121.834 150.393 125.25 146.312C129.109 139.008 129.285 131.393 129.195 123.277C129.191 121.798 129.191 121.798 129.187 120.289C129.176 117.172 129.15 114.055 129.125 110.938C129.115 108.811 129.106 106.684 129.098 104.557C129.076 99.371 129.041 94.1855 129 89C129.66 89 130.32 89 131 89C132.94 94.7096 133.307 99.8018 133.301 105.809C133.305 106.734 133.309 107.66 133.314 108.613C133.319 110.562 133.32 112.511 133.316 114.46C133.312 117.425 133.336 120.389 133.361 123.354C133.364 125.255 133.364 127.157 133.363 129.059C133.372 129.936 133.382 130.813 133.391 131.717C133.333 139.554 131.633 146.21 126 152C118.611 157.969 112.488 158.792 103 158C96.9505 156.313 93 151.276 89.9999 146C86.9431 139.263 86.4622 133.334 86.3124 125.984C86.2677 124.284 86.2677 124.284 86.2221 122.55C86.1646 120.167 86.1146 117.783 86.0717 115.399C85.9999 111.747 85.8857 108.097 85.7695 104.445C85.7187 102.125 85.6704 99.8047 85.6249 97.4844C85.5867 96.3927 85.5484 95.301 85.509 94.1762C85.4293 86.6302 85.4293 86.6302 88.4609 83.2822C90.9999 82 90.9999 82 91.9999 82Z" fill="#3D3D3D"/>
<path d="M98 37C98 37.33 98 37.66 98 38C93.05 38.66 88.1 39.32 83 40C83 40.66 83 41.32 83 42C84.32 42.33 85.64 42.66 87 43C86.068 43.1586 85.136 43.3171 84.1758 43.4805C70.8391 45.9213 57.3694 49.1053 48.3203 60.0274C45.0982 64.8415 45.3382 70.432 46 76C47.9932 81.3986 50.9376 84.4435 56.031 87.1995C59.4184 88.5767 62.6339 88.5917 66.25 88.5C67.36 88.4895 67.36 88.4895 68.4924 88.4788C74.124 88.3067 78.8384 87.116 83.9961 84.7774C84.6574 84.5208 85.3187 84.2643 86 84C86.99 84.495 86.99 84.495 88 85C87.67 85.99 87.34 86.98 87 88C86.9139 89.4272 86.8823 90.8581 86.8865 92.2879C86.8866 93.1485 86.8866 94.0092 86.8867 94.8959C86.8919 95.821 86.897 96.7461 86.9023 97.6992C86.9045 99.1245 86.9045 99.1245 86.9066 100.579C86.9122 103.615 86.9248 106.651 86.9375 109.688C86.9425 111.745 86.9471 113.803 86.9512 115.861C86.9622 120.908 86.9795 125.954 87 131C86.67 131 86.34 131 86 131C85.67 117.47 85.34 103.94 85 90C81.04 90.99 77.08 91.98 73 93C63.7151 93.9907 56.5086 93.1214 48.75 87.75C43.7832 82.7832 41.4252 78.2782 40.9766 71.3242C41.0505 63.9876 42.8286 59.1454 47.9766 53.8399C60.5596 42.3985 81.0453 35.962 98 37Z" fill="#505050"/>
<path d="M481 63C480.67 64.32 480.34 65.64 480 67C481.052 67.2475 482.104 67.495 483.188 67.75C487.453 68.976 490.698 70.9313 493.113 74.7695C495.1 79.7674 494.8 85.9367 493.453 91.0937C490.269 97.7028 482.943 101.833 476.375 104.437C475.199 104.716 475.199 104.716 474 105C475.65 106.98 477.3 108.96 479 111C478.67 111.66 478.34 112.32 478 113C476.867 112.524 476.867 112.524 475.711 112.039C470.682 110.631 465.824 110.536 460.625 110.375C459.603 110.336 458.581 110.298 457.527 110.258C455.018 110.164 452.509 110.078 450 110C452.255 107.414 454.019 106.456 457.316 105.57C458.159 105.335 459.001 105.1 459.868 104.858C460.757 104.616 461.647 104.374 462.562 104.125C477.642 99.8953 477.642 99.8953 488.777 89.3359C490.804 85.4639 490.779 83.3221 490 79C487.108 73.6598 487.108 73.6598 482.242 70.3867C475.405 69.2075 468.447 69.3904 462 72C460.006 72.3692 458.007 72.7133 456 73C456 71.68 456 70.36 456 69C459.788 67.8006 463.581 66.6175 467.375 65.4375C468.455 65.0953 469.535 64.753 470.648 64.4004C471.68 64.0813 472.711 63.7623 473.773 63.4336C474.727 63.1351 475.68 62.8366 476.662 62.529C479 62 479 62 481 63Z" fill="#373737"/>
<path d="M340 109C340.33 109 340.66 109 341 109C341.22 110.415 341.22 110.415 341.445 111.859C343.45 123.334 346.311 134.167 355.93 141.664C361.401 145.195 367.429 147.319 374 146C382.307 142.663 386.395 137.8 389.973 129.77C391 128 391 128 394 126C393.699 134.123 390.705 140.027 385.164 145.969C379.35 150.691 372.945 150.875 365.758 150.461C361.052 149.884 357.799 148.786 354 146C353.154 145.464 352.309 144.928 351.438 144.375C347.672 140.706 344.895 136.371 342 132C341.758 132.629 341.515 133.258 341.266 133.906C339.101 139.433 336.732 144.731 334 150C333.01 149.67 332.02 149.34 331 149C331.435 147.931 331.435 147.931 331.879 146.84C336.762 134.471 338.464 122.14 340 109Z" fill="#3E3E3E"/>
<path d="M465.312 37.625C466.256 37.611 467.199 37.597 468.171 37.5825C474.778 37.6282 479.6 38.4321 484.996 42.5078C487.92 45.788 489.399 48.1587 489.562 52.625C489.29 56.4505 488.374 58.9232 486 62C485.443 62.7631 484.886 63.5263 484.312 64.3125C483.879 64.8694 483.446 65.4262 483 66C483.66 66.66 484.32 67.32 485 68C483.35 67.67 481.7 67.34 480 67C480.632 61.3158 480.632 61.3158 482.531 59.6875C484.729 57.1621 484.293 55.0883 484.188 51.8125C484.16 50.7258 484.133 49.6391 484.105 48.5195C484.053 47.2724 484.053 47.2724 484 46C471.678 39.6797 457.51 41.1587 444.535 45.0352C437.971 47.3738 432.829 49.9504 428 55C425.792 57.2971 423.925 58.6887 421 60C422.798 53.606 427.216 48.7917 432.707 45.2578C443.444 39.6009 453.287 37.7496 465.312 37.625Z" fill="#484848"/>
<path d="M478 109C485.4 113.2 485.4 113.2 487 118C487.724 125.348 487.074 130.804 483 137C482.464 137.846 481.928 138.691 481.375 139.562C473.243 147.909 462.819 152.201 452 156C451.01 156 450.02 156 449 156C449 155.34 449 154.68 449 154C448.34 153.67 447.68 153.34 447 153C448.114 152.588 449.227 152.175 450.375 151.75C451.105 151.473 451.834 151.196 452.586 150.91C454.21 150.298 455.841 149.702 457.477 149.121C467.454 145.43 477.134 138.732 482 129C483.084 121.764 482.072 116.981 478 111C478 110.34 478 109.68 478 109Z" fill="#474747"/>
<path d="M638 101C638.33 101 638.66 101 639 101C639.388 119.378 638.062 134.627 624.715 148.727C619.765 152.871 614.047 155.776 608 158C607.34 157.67 606.68 157.34 606 157C606.33 156.34 606.66 155.68 607 155C606.34 154.67 605.68 154.34 605 154C605.557 153.781 606.114 153.562 606.688 153.336C612.474 150.932 617.201 148.018 622 144C622.887 143.257 623.774 142.515 624.688 141.75C630.759 134.53 633.08 126.084 635 117C635.99 117 636.98 117 638 117C638 111.72 638 106.44 638 101Z" fill="#454545"/>
<path d="M249.999 79C248.583 82.497 247.108 83.8114 243.874 85.6875C231.56 93.6477 224.462 107.333 219.999 121C219.339 121 218.679 121 217.999 121C217.544 114.95 218.849 111.307 221.624 106.125C221.99 105.423 222.355 104.721 222.731 103.998C236.437 78.0538 236.437 78.0538 249.999 79Z" fill="#212121"/>
<path d="M107.524 35.8105C108.692 35.8112 109.859 35.8118 111.062 35.8125C112.238 35.8118 113.413 35.8112 114.625 35.8105C123.565 35.8645 132.185 36.5087 141 38C141 38.99 141 39.98 141 41C139.74 40.9948 138.481 40.9895 137.183 40.9841C132.445 40.9658 127.708 40.9545 122.97 40.9451C120.932 40.9401 118.893 40.9333 116.855 40.9246C105.521 40.8773 94.2933 40.9171 83 42C83 41.34 83 40.68 83 40C88.0084 38.682 92.8675 37.7332 98 37C100.127 34.8732 104.687 35.829 107.524 35.8105Z" fill="#353535"/>
<path d="M195 64C195 67.9951 193.059 70.1441 190.875 73.3125C184.783 82.4817 179.956 92.0755 178.421 103.109C178 105 178 105 176 107C176 106.34 176 105.68 176 105C175.34 105 174.68 105 174 105C174 107.97 174 110.94 174 114C173.67 114 173.34 114 173 114C171.63 97.485 179.713 80.3234 189.578 67.3828C191.233 65.773 192.896 64.9258 195 64Z" fill="#474747"/>
<path d="M628 67C631.737 68.4775 631.737 68.4775 632.897 70.7842C633.079 71.4896 633.261 72.1951 633.449 72.9219C633.657 73.7005 633.865 74.4791 634.08 75.2812C634.28 76.0959 634.481 76.9106 634.687 77.75C634.899 78.5492 635.111 79.3484 635.33 80.1719C636.954 86.4021 638.132 92.368 638.098 98.8359C638.094 99.8994 638.091 100.963 638.088 102.059C638.079 103.153 638.071 104.247 638.062 105.375C638.058 106.493 638.053 107.61 638.049 108.762C638.037 111.508 638.021 114.254 638 117C637.01 117 636.02 117 635 117C635.046 116.054 635.093 115.108 635.14 114.133C635.601 100.232 632.527 87.5118 628.515 74.2617C627.949 71.7784 627.91 69.5387 628 67Z" fill="#464646"/>
<path d="M86 84C86.66 84.33 87.32 84.66 88 85C87.67 85.99 87.34 86.98 87 88C86.9139 89.4272 86.8823 90.8581 86.8865 92.2878C86.8866 93.5788 86.8866 93.5788 86.8867 94.8959C86.8919 95.821 86.897 96.7461 86.9023 97.6992C86.9045 99.1245 86.9045 99.1245 86.9066 100.579C86.9122 103.615 86.9248 106.651 86.9375 109.688C86.9425 111.745 86.9471 113.803 86.9512 115.861C86.9622 120.908 86.9795 125.954 87 131C86.67 131 86.34 131 86 131C85.67 117.47 85.34 103.94 85 90C81.04 90.99 77.08 91.98 73 93C68.9844 93.293 68.9844 93.293 65.75 93.1875C64.6517 93.1604 63.5534 93.1334 62.4219 93.1055C61.6227 93.0707 60.8234 93.0359 60 93C60 92.34 60 91.68 60 91C59.01 91 58.02 91 57 91C57 90.34 57 89.68 57 89C58.1718 88.9742 59.3435 88.9484 60.5508 88.9219C68.9459 88.6484 76.2415 88.2284 84.0312 84.7422C84.6809 84.4973 85.3306 84.2523 86 84Z" fill="#696969"/>
<path d="M46.0007 59C47.0007 62 47.0007 62 46.0007 65C45.2536 71.6067 45.4882 76.8339 49.4226 82.3398C51.9709 85.0206 54.6648 86.4302 58.0007 88C57.6707 88.99 57.3407 89.98 57.0007 91C58.4857 91.495 58.4857 91.495 60.0007 92C53.9997 91.7 50.2426 89.0067 46.0007 85C42.0797 80.2926 40.8937 75.0568 41.0007 69C41.8195 64.7695 42.5097 61.6976 46.0007 59Z" fill="#454545"/>
<path d="M91.9997 82C91.8554 83.3543 91.7092 84.7085 91.5622 86.0625C91.481 86.8166 91.3998 87.5707 91.3161 88.3477C91.085 90.2853 90.8061 92.2174 90.4997 94.1445C89.9696 98.2322 89.7776 102.225 89.6833 106.34C89.6625 107.107 89.6418 107.874 89.6203 108.664C89.5555 111.088 89.4963 113.513 89.4372 115.938C89.394 117.592 89.3504 119.246 89.3064 120.9C89.1999 124.933 89.0984 128.967 88.9997 133C88.3397 133 87.6797 133 86.9997 133C86.73 126.381 86.5001 119.761 86.2978 113.139C86.2243 110.887 86.1417 108.634 86.0498 106.382C85.9193 103.146 85.8215 99.9097 85.7302 96.6719C85.6825 95.6645 85.6348 94.657 85.5857 93.6191C85.4338 86.6149 85.4338 86.6149 88.4541 83.333C90.9997 82 90.9997 82 91.9997 82Z" fill="#1B1B1B"/>
<path d="M391.999 64C392.659 64.33 393.319 64.66 393.999 65C392.764 74.6402 384.36 82.3089 376.999 88C376.324 88.5569 375.648 89.1137 374.952 89.6875C372.999 91 372.999 91 369.999 91C369.714 88.6758 369.714 88.6758 369.999 86C371.94 84.4805 371.94 84.4805 374.562 83.1875C382.493 78.8059 386.766 73.337 389.999 65C390.659 64.67 391.319 64.34 391.999 64Z" fill="#474747"/>
<path d="M470 104C469.67 104.99 469.34 105.98 469 107C471.64 107.33 474.28 107.66 477 108C477.66 109.65 478.32 111.3 479 113C478.081 112.683 477.162 112.366 476.215 112.039C471.075 110.571 465.875 110.541 460.562 110.375C459.545 110.336 458.527 110.298 457.479 110.258C454.986 110.164 452.493 110.078 450 110C452.979 106.727 455.728 105.943 460 104.75C461.237 104.394 462.475 104.038 463.75 103.672C467 103 467 103 470 104Z" fill="#2B2B2B"/>
<path d="M481 63C480.67 64.32 480.34 65.64 480 67C480.99 67.33 481.98 67.66 483 68C483 68.33 483 68.66 483 69C481.48 69.0735 481.48 69.0735 479.93 69.1484C478.578 69.2235 477.227 69.2991 475.875 69.375C475.21 69.4059 474.545 69.4369 473.859 69.4687C469.586 69.7201 466.005 70.5267 462 72C460.006 72.3692 458.007 72.7133 456 73C456 71.68 456 70.36 456 69C459.788 67.8006 463.581 66.6175 467.375 65.4375C468.455 65.0953 469.535 64.753 470.648 64.4004C471.68 64.0813 472.711 63.7623 473.773 63.4336C474.727 63.1351 475.68 62.8366 476.662 62.529C479 62 479 62 481 63Z" fill="#1C1C1C"/>
<path d="M275 123C275.33 123.99 275.66 124.98 276 126C271.6 134.001 263.638 140.812 257 147C256.67 147 256.34 147 256 147C255.68 144.836 255.68 144.836 256 142C257.663 139.994 259.217 138.359 261.125 136.625C264.427 133.493 267.654 130.385 270.562 126.875C273 124 273 124 275 123Z" fill="#292929"/>
<path d="M127 81C128.771 81.3098 130.542 81.6229 132.312 81.9375C133.792 82.1985 133.792 82.1985 135.301 82.4648C138 83 138 83 141 84C143.226 84.2245 145.456 84.4078 147.688 84.5625C148.867 84.6463 150.046 84.7301 151.262 84.8164C152.617 84.9073 152.617 84.9073 154 85C154 85.33 154 85.66 154 86C151.36 86 148.72 86 146 86C146 86.66 146 87.32 146 88C136.59 88.1845 136.59 88.1845 132 87C131.67 88.32 131.34 89.64 131 91C131 90.34 131 89.68 131 89C130.01 89.33 129.02 89.66 128 90C127.67 87.03 127.34 84.06 127 81Z" fill="#444444"/>
<path d="M256 143C256.309 145.273 256.309 145.273 256 148C250.38 153.147 243.244 155.981 236 158C237.092 154.647 238.173 152.512 241.215 150.629C242.961 149.786 244.718 148.966 246.484 148.168C249.05 146.977 253.355 143 256 143Z" fill="#424242"/>
<path d="M449 41C446.36 41.99 443.72 42.98 441 44C441.33 44.66 441.66 45.32 442 46C441.348 46.2797 440.695 46.5594 440.023 46.8476C434.535 49.3651 430.977 51.6873 427.316 56.4844C425.519 58.5535 423.616 59.3075 421 60C422.831 53.4886 427.32 48.6064 433.023 45.1875C443.88 39.7199 443.88 39.7199 449 41Z" fill="#494949"/>
<path d="M98 37C98 37.33 98 37.66 98 38C93.05 38.66 88.1 39.32 83 40C83 40.66 83 41.32 83 42C84.32 42.33 85.64 42.66 87 43C80.3333 44.3333 73.6667 45.6667 67 47C66.67 45.68 66.34 44.36 66 43C87.5211 36.6119 87.5211 36.6119 98 37Z" fill="#5C5C5C"/>
<path d="M449 154C448.67 154.99 448.34 155.98 448 157C440.586 158.837 433.623 159.236 426 159C426 157.68 426 156.36 426 155C428.896 154.832 431.792 154.665 434.688 154.5C435.912 154.428 435.912 154.428 437.162 154.355C441.114 154.132 445.04 153.935 449 154Z" fill="#393939"/>
<path d="M338 126C338.33 126.66 338.66 127.32 339 128C339.99 128 340.98 128 342 128C340.18 135.252 337.938 142.124 335 149C334.01 149 333.02 149 332 149C331.67 148.34 331.34 147.68 331 147C331.672 145.258 331.672 145.258 332.75 143.125C335.34 137.613 336.677 131.924 338 126Z" fill="#515151"/>
<path d="M478 109C485.4 113.2 485.4 113.2 487 118C487.069 119.895 487.085 121.792 487.062 123.688C487.053 124.681 487.044 125.675 487.035 126.699C487.024 127.458 487.012 128.218 487 129C485.667 129 484.333 129 483 129C482.961 127.931 482.961 127.931 482.922 126.84C482.539 120.376 481.556 116.392 478 111C478 110.34 478 109.68 478 109Z" fill="#555555"/>
<path d="M174 105C174.66 105 175.32 105 176 105C176 113.91 176 122.82 176 132C175.01 132 174.02 132 173 132C172.815 112.995 172.815 112.995 174 105Z" fill="#2A2A2A"/>
<path d="M638.001 101C638.331 101 638.661 101 639.001 101C639.486 124.028 639.486 124.028 636.001 131C635.341 131 634.681 131 634.001 131C632.88 125.511 633.208 122.166 635.001 117C635.991 117 636.981 117 638.001 117C638.001 111.72 638.001 106.44 638.001 101Z" fill="#5B5B5B"/>
<path d="M179 91C180.094 94.3364 179.897 96.7066 179.188 100.125C179.016 100.994 178.845 101.863 178.668 102.758C178 105 178 105 176 107C176 106.34 176 105.68 176 105C175.34 105 174.68 105 174 105C174 107.97 174 110.94 174 114C173.67 114 173.34 114 173 114C172.574 106.716 173.134 99.7936 176 93C176.99 92.34 177.98 91.68 179 91Z" fill="#545454"/>
<path d="M463 147C463.66 147.33 464.32 147.66 465 148C465 148.99 465 149.98 465 151C462.898 151.839 460.794 152.671 458.688 153.5C457.516 153.964 456.344 154.428 455.137 154.906C452 156 452 156 449 156C449 155.34 449 154.68 449 154C448.34 153.67 447.68 153.34 447 153C448.898 152.288 450.796 151.578 452.695 150.871C454.217 150.296 455.733 149.705 457.242 149.098C459.14 148.343 461.069 147.666 463 147Z" fill="#4D4D4D"/>
<path d="M578 89C578.66 89 579.32 89 580 89C580.845 91.2043 581.676 93.4125 582.5 95.625C582.964 96.8548 583.428 98.0845 583.906 99.3516C584.943 102.81 585.22 105.422 585 109C584.01 108.67 583.02 108.34 582 108C579.003 101.776 578.365 95.8472 578 89Z" fill="#333333"/>
<path d="M481 97C481.66 97.33 482.32 97.66 483 98C482.875 99.8125 482.875 99.8125 482 102C476.964 105 476.964 105 474 105C474.33 105.99 474.66 106.98 475 108C472.03 107.505 472.03 107.505 469 107C469.188 104.641 469.188 104.641 470 102C472.25 100.672 472.25 100.672 475 99.75C478.263 98.8166 478.263 98.8166 481 97Z" fill="#3C3C3C"/>
<path d="M327 39C327.66 39.33 328.32 39.66 329 40C326.03 42.97 326.03 42.97 323 46C323.33 46.66 323.66 47.32 324 48C322.333 49.6667 320.667 51.3333 319 53C318.484 53.5569 317.969 54.1137 317.438 54.6875C315.765 56.2142 314.058 57.0776 312 58C314.178 50.2555 321.409 44.4547 327 39Z" fill="#434343"/>
<path d="M622 53C623.824 53.1289 623.824 53.1289 626 54C627.52 56.6523 627.52 56.6523 628.812 59.9375C629.252 61.019 629.692 62.1005 630.145 63.2148C631 66 631 66 630 68C629.01 68 628.02 68 627 68C626.163 65.8766 625.33 63.7512 624.5 61.625C623.804 59.85 623.804 59.85 623.094 58.0391C622 55 622 55 622 53Z" fill="#4A4A4A"/>
<path d="M632 129C632.66 129 633.32 129 634 129C634.812 131 634.812 131 635 134C633.588 136.85 631.851 139.419 630 142C629.67 141.34 629.34 140.68 629 140C628.34 139.67 627.68 139.34 627 139C628.65 135.7 630.3 132.4 632 129Z" fill="#3F3F3F"/>
<path d="M185 78C186.305 81.9157 185.322 83.0389 183.562 86.6875C183.089 87.6814 182.616 88.6752 182.129 89.6992C181.756 90.4585 181.384 91.2177 181 92C179.68 92 178.36 92 177 92C178.617 85.9672 180.167 82.0492 185 78Z" fill="#3C3C3C"/>
<path d="M485 50C485.33 50 485.66 50 486 50C487.571 60.2143 487.571 60.2143 485 63.75C484.01 64.8637 484.01 64.8637 483 66C483.66 66.66 484.32 67.32 485 68C483.35 67.67 481.7 67.34 480 67C480.629 61.3402 480.629 61.3402 482.5 59.625C485.016 56.8993 484.704 53.6161 485 50Z" fill="#656565"/>
<path d="M256 143C256.281 145.293 256.281 145.293 256 148C254.031 149.801 254.031 149.801 251.5 151.312C250.665 151.824 249.829 152.336 248.969 152.863C248.319 153.238 247.669 153.614 247 154C246.34 153.67 245.68 153.34 245 153C251.604 143 251.604 143 256 143Z" fill="#4B4B4B"/>
<path d="M129 89C129.66 89 130.32 89 131 89C132.532 92.0653 132.103 95.2675 132.062 98.625C132.058 99.3314 132.053 100.038 132.049 100.766C132.037 102.51 132.019 104.255 132 106C130 105 130 105 129.379 103.328C128.908 100.438 128.905 97.6773 128.937 94.75C128.951 93.1335 128.951 93.1335 128.965 91.4844C128.976 90.6645 128.988 89.8447 129 89Z" fill="#292929"/>
<path d="M524 48C524.66 48.33 525.32 48.66 526 49C525.402 49.5569 524.804 50.1137 524.188 50.6875C521.923 52.893 521.923 52.893 520.562 55.5625C518.365 58.9909 515.555 60.2227 512 62C513.712 55.7242 518.753 51.4979 524 48Z" fill="#525252"/>
<path d="M636 101C636.66 101 637.32 101 638 101C638 106.28 638 111.56 638 117C637.01 117 636.02 117 635 117C635.33 111.72 635.66 106.44 636 101Z" fill="#0E0E0E"/>
<path d="M162 85C161.67 85.66 161.34 86.32 161 87C157.715 88.0951 155.263 88.0996 151.812 88.0625C150.182 88.049 150.182 88.049 148.52 88.0352C147.688 88.0236 146.857 88.0119 146 88C146 87.34 146 86.68 146 86C148.29 85.6382 150.582 85.2858 152.875 84.9375C154.151 84.7403 155.427 84.543 156.742 84.3398C160 84 160 84 162 85Z" fill="#171717"/>
<path d="M449 41C446.36 41.99 443.72 42.98 441 44C441.33 44.66 441.66 45.32 442 46C439.36 46.99 436.72 47.98 434 49C434.199 46.6484 434.199 46.6484 435 44C437.145 42.6016 437.145 42.6016 439.812 41.625C440.685 41.2873 441.558 40.9495 442.457 40.6016C445 40 445 40 449 41Z" fill="#606060"/>
<path d="M544 100C546.689 102.356 547.919 104.636 549.25 107.938C549.784 109.219 549.784 109.219 550.328 110.527C551.047 113.171 550.92 114.459 550 117C544 103.631 544 103.631 544 100Z" fill="#292929"/>
<path d="M455 40C455 40.66 455 41.32 455 42C453.254 42.533 451.503 43.0509 449.75 43.5625C448.775 43.8526 447.801 44.1426 446.797 44.4414C444.038 44.9925 442.609 44.9379 440 44C449.226 39.4078 449.226 39.4078 455 40Z" fill="#1B1B1B"/>
<path d="M176 98C176.66 98.33 177.32 98.66 178 99C178.125 101.875 178.125 101.875 178 105C177.34 105.66 176.68 106.32 176 107C176 106.34 176 105.68 176 105C175.34 105 174.68 105 174 105C174 107.97 174 110.94 174 114C173.67 114 173.34 114 173 114C172.673 107.869 172.606 103.373 176 98Z" fill="#434343"/>
<path d="M392 50C392.66 50 393.32 50 394 50C394 54.95 394 59.9 394 65C393.01 65 392.02 65 391 65C391.33 60.05 391.66 55.1 392 50Z" fill="#1D1D1D"/>
<path d="M68 45C65.7727 48.341 64.7514 48.9021 61 50C60.01 49.67 59.02 49.34 58 49C59 46 59 46 61.3125 44.75C64.0987 43.9725 65.3344 44.0128 68 45Z" fill="#333333"/>
<path d="M280 115C280.75 116.625 280.75 116.625 281 119C279.062 122.25 279.062 122.25 277 125C276.01 124.67 275.02 124.34 274 124C275.312 120.063 276.919 117.773 280 115Z" fill="#4B4B4B"/>
<path d="M421 153C423.97 153.33 426.94 153.66 430 154C428.68 154.33 427.36 154.66 426 155C426 155.99 426 156.98 426 158C423.36 157.67 420.72 157.34 418 157C418.66 156.67 419.32 156.34 420 156C420.33 155.01 420.66 154.02 421 153Z" fill="#5C5C5C"/>
<path d="M571 49C571.33 49 571.66 49 572 49C572 55.6 572 62.2 572 69C570.68 67.68 569.36 66.36 568 65C569 63 569 63 570 62C570.235 59.8171 570.414 57.628 570.562 55.4375C570.646 54.24 570.73 53.0424 570.816 51.8086C570.877 50.8818 570.938 49.9549 571 49Z" fill="#B3B3B3"/>
<path d="M284 107C284.688 108.625 284.688 108.625 285 111C283.562 114.25 283.562 114.25 282 117C281.01 116.67 280.02 116.34 279 116C280.091 112.225 280.908 109.53 284 107Z" fill="#3B3B3B"/>
<path d="M207 49C207.66 49.33 208.32 49.66 209 50C205.37 53.63 201.74 57.26 198 61C197.34 60.67 196.68 60.34 196 60C199.362 55.7483 202.748 52.3618 207 49Z" fill="#787878"/>
<path d="M285 99C285.33 99.66 285.66 100.32 286 101C286.66 101 287.32 101 288 101C287.25 106.75 287.25 106.75 285 109C284.34 108.67 283.68 108.34 283 108C283.66 105.03 284.32 102.06 285 99Z" fill="#515151"/>
<path d="M88 85C86.8125 87.5 86.8125 87.5 85 90C82.3125 90.3125 82.3125 90.3125 80 90C80.1875 88.125 80.1875 88.125 81 86C85.3333 83.6667 85.3333 83.6667 88 85Z" fill="#3F3F3F"/>
<path d="M374 84C374.66 84.33 375.32 84.66 376 85C375.427 87.8672 375.139 88.8615 373 91C372.01 91 371.02 91 370 91C370 89.35 370 87.7 370 86C371.875 84.9375 371.875 84.9375 374 84Z" fill="#5A5A5A"/>
<path d="M343 71C343.66 71 344.32 71 345 71C344.294 74.6688 342.723 77.7045 341 81C340.34 81 339.68 81 339 81C339.563 77.0588 340.679 74.2491 343 71Z" fill="#292929"/>
<path d="M90 132C90.33 133.98 90.66 135.96 91 138C90.34 138 89.68 138 89 138C89.33 139.98 89.66 141.96 90 144C87.6024 141.602 87.6572 140.667 87.375 137.375C87.3002 136.558 87.2255 135.74 87.1484 134.898C87.0995 134.272 87.0505 133.645 87 133C89 132 89 132 90 132Z" fill="#6D6D6D"/>
<path d="M470 102C473 103 473 103 476 105C475.34 105 474.68 105 474 105C474.33 105.99 474.66 106.98 475 108C472.03 107.505 472.03 107.505 469 107C469.33 105.35 469.66 103.7 470 102Z" fill="#828282"/>
<path d="M458 68C461 69 461 69 463 71C460 73 460 73 456 73C456 71.68 456 70.36 456 69C456.66 68.67 457.32 68.34 458 68Z" fill="#555555"/>
<path d="M141 39C143.97 39.33 146.94 39.66 150 40C146 42 146 42 143 43C140.812 42.0625 140.812 42.0625 139 41C139.66 41 140.32 41 141 41C141 40.34 141 39.68 141 39Z" fill="#626262"/>
<path d="M336 143C336.33 143.66 336.66 144.32 337 145C335.562 147.625 335.562 147.625 334 150C333.01 149.67 332.02 149.34 331 149C331.812 146.562 331.812 146.562 333 144C333.99 143.67 334.98 143.34 336 143Z" fill="#575757"/>
<path d="M164 82C164.66 82.33 165.32 82.66 166 83C166 83.99 166 84.98 166 86C163.646 87.4294 162.52 88.0866 159.75 87.625C159.173 87.4188 158.595 87.2125 158 87C158.99 87 159.98 87 161 87C161.124 86.3606 161.248 85.7212 161.375 85.0625C161.581 84.3819 161.787 83.7013 162 83C162.66 82.67 163.32 82.34 164 82Z" fill="#575757"/>
<path d="M46 59C47.2078 62.6233 46.5431 63.6415 45 67C44.01 67 43.02 67 42 67C42.4983 63.3125 43.1007 61.3951 46 59Z" fill="#313131"/>
<path d="M516 58C516.33 58.66 516.66 59.32 517 60C514.61 63.243 512.795 65.509 509 67C510.35 62.5811 512.261 60.6565 516 58Z" fill="#333333"/>
<path d="M557 134C557.99 135.32 558.98 136.64 560 138C559.67 138.66 559.34 139.32 559 140C558.774 141.704 558.591 143.413 558.438 145.125C558.354 146.035 558.27 146.945 558.184 147.883C558.123 148.581 558.062 149.28 558 150C557.67 150 557.34 150 557 150C557 144.72 557 139.44 557 134Z" fill="#8C8C8C"/>
<path d="M288 93C288.33 93 288.66 93 289 93C289 95.64 289 98.28 289 101C288.01 101 287.02 101 286 101C286.875 94.125 286.875 94.125 288 93Z" fill="#303030"/>
<path d="M179 86C179.99 86 180.98 86 182 86C181.67 87.98 181.34 89.96 181 92C179.68 92 178.36 92 177 92C177.66 90.02 178.32 88.04 179 86Z" fill="#484848"/>
<path d="M289 89C289.66 89.33 290.32 89.66 291 90C290.67 92.64 290.34 95.28 290 98C288.375 96.3125 288.375 96.3125 287 94C287.812 91.25 287.812 91.25 289 89Z" fill="#696969"/>
<path d="M468 144C468.66 144.33 469.32 144.66 470 145C469.01 146.65 468.02 148.3 467 150C466.01 149.67 465.02 149.34 464 149C465.75 145.125 465.75 145.125 468 144Z" fill="#3A3A3A"/>
<path d="M275 126C273.707 128.884 272.341 130.872 270 133C269.67 132.01 269.34 131.02 269 130C272.75 126 272.75 126 275 126Z" fill="#595959"/>
</svg>
